<?xml version="1.0" encoding="UTF-8"?>
<svg id="esagono" xmlns="http://www.w3.org/2000/svg" version="1.1" viewBox="0 0 1000 383.93">
  <polygon points="744.67 268.88 684.05 208.25 684.05 268.88 744.67 268.88" style="fill: #ccc; stroke: red; stroke-linecap: round; stroke-linejoin: round; stroke-width: 3px;"/>
  <polygon points="805.3 147.63 865.92 208.25 865.92 147.63 805.3 147.63" style="fill: #ccc; stroke: red; stroke-linecap: round; stroke-linejoin: round; stroke-width: 3px;"/>
  <polygon points="744.67 147.63 805.3 208.25 805.3 147.63 744.67 147.63" style="fill: #ccc; stroke: red; stroke-linecap: round; stroke-linejoin: round; stroke-width: 3px;"/>
  <polygon points="684.05 147.63 744.67 208.25 744.67 147.63 684.05 147.63" style="fill: #ccc; stroke: red; stroke-linecap: round; stroke-linejoin: round; stroke-width: 3px;"/>
  <polygon points="865.92 87.01 805.3 147.63 865.92 147.63 865.92 87.01" style="fill: #ccc; stroke: red; stroke-linecap: round; stroke-linejoin: round; stroke-width: 3px;"/>
  <polygon points="744.67 87.01 805.3 147.63 805.3 87.01 744.67 87.01" style="fill: #ccc; stroke: red; stroke-linecap: round; stroke-linejoin: round; stroke-width: 3px;"/>
  <polygon points="684.05 87.01 744.67 147.63 744.67 87.01 684.05 87.01" style="fill: #ccc; stroke: red; stroke-linecap: round; stroke-linejoin: round; stroke-width: 3px;"/>
  <polygon points="865.92 87.01 805.3 26.39 805.3 87.01 865.92 87.01" style="fill: #ccc; stroke: red; stroke-linecap: round; stroke-linejoin: round; stroke-width: 3px;"/>
  <polygon points="744.67 26.39 805.3 87.01 805.3 26.39 744.67 26.39" style="fill: #ccc; stroke: red; stroke-linecap: round; stroke-linejoin: round; stroke-width: 3px;"/>
  <polygon points="744.67 26.39 684.05 87.01 744.67 87.01 744.67 26.39" style="fill: #ccc; stroke: red; stroke-linecap: round; stroke-linejoin: round; stroke-width: 3px;"/>
  <polygon points="926.54 147.63 987.16 208.25 987.16 147.63 926.54 147.63" style="fill: #ccc; stroke: red; stroke-linecap: round; stroke-linejoin: round; stroke-width: 3px;"/>
  <polygon points="865.92 208.25 926.54 147.63 865.92 147.63 865.92 208.25" style="fill: #ccc; stroke: red; stroke-linecap: round; stroke-linejoin: round; stroke-width: 3px;"/>
  <polygon points="926.54 87.01 987.16 147.63 987.16 87.01 926.54 87.01" style="fill: #ccc; stroke: red; stroke-linecap: round; stroke-linejoin: round; stroke-width: 3px;"/>
  <polygon points="865.92 87.01 926.54 147.63 926.54 87.01 865.92 87.01" style="fill: #ccc; stroke: red; stroke-linecap: round; stroke-linejoin: round; stroke-width: 3px;"/>
  <polygon points="865.92 268.88 805.3 329.5 865.92 329.5 865.92 268.88" style="fill: #ccc; stroke: red; stroke-linecap: round; stroke-linejoin: round; stroke-width: 3px;"/>
  <polygon points="805.3 268.88 744.67 329.5 805.3 329.5 805.3 268.88" style="fill: #ccc; stroke: red; stroke-linecap: round; stroke-linejoin: round; stroke-width: 3px;"/>
  <polygon points="684.05 268.88 744.67 329.5 744.67 268.88 684.05 268.88" style="fill: #ccc; stroke: red; stroke-linecap: round; stroke-linejoin: round; stroke-width: 3px;"/>
  <polygon points="805.3 268.88 865.92 208.25 805.3 208.25 805.3 268.88" style="fill: #ccc; stroke: red; stroke-linecap: round; stroke-linejoin: round; stroke-width: 3px;"/>
  <polygon points="744.67 208.25 805.3 268.88 805.3 208.25 744.67 208.25" style="fill: #ccc; stroke: red; stroke-linecap: round; stroke-linejoin: round; stroke-width: 3px;"/>
  <polygon points="684.05 208.25 684.05 268.88 744.67 268.88 684.05 208.25" style="fill: none; stroke: red; stroke-linecap: round; stroke-linejoin: round; stroke-width: 3px;"/>
  <polygon points="926.54 268.88 987.16 329.5 987.16 268.88 926.54 268.88" style="fill: #ccc; stroke: red; stroke-linecap: round; stroke-linejoin: round; stroke-width: 3px;"/>
  <polygon points="865.92 268.88 926.54 329.5 926.54 268.88 865.92 268.88" style="fill: #ccc; stroke: red; stroke-linecap: round; stroke-linejoin: round; stroke-width: 3px;"/>
  <polygon points="987.16 208.25 926.54 268.88 987.16 268.88 987.16 208.25" style="fill: #ccc; stroke: red; stroke-linecap: round; stroke-linejoin: round; stroke-width: 3px;"/>
  <polygon points="926.54 268.88 865.92 208.25 865.92 268.88 926.54 268.88" style="fill: #ccc; stroke: red; stroke-linecap: round; stroke-linejoin: round; stroke-width: 3px;"/>
  <polygon points="926.54 26.39 987.16 87.01 987.16 26.39 926.54 26.39" style="fill: #ccc; stroke: red; stroke-linecap: round; stroke-linejoin: round; stroke-width: 3px;"/>
  <polygon points="865.92 26.39 926.54 87.01 926.54 26.39 865.92 26.39" style="fill: #ccc; stroke: red; stroke-linecap: round; stroke-linejoin: round; stroke-width: 3px;"/>
  <polygon points="805.3 147.63 805.3 208.25 865.92 208.25 805.3 147.63" style="fill: lime; stroke: red; stroke-linecap: round; stroke-linejoin: round; stroke-width: 3px;"/>
  <polygon points="744.67 147.63 744.67 208.25 805.3 208.25 744.67 147.63" style="fill: lime; stroke: red; stroke-linecap: round; stroke-linejoin: round; stroke-width: 3px;"/>
  <polygon points="684.05 147.63 684.05 208.25 744.67 208.25 684.05 147.63" style="fill: lime; stroke: red; stroke-linecap: round; stroke-linejoin: round; stroke-width: 3px;"/>
  <polygon points="744.67 268.88 744.67 208.25 684.05 208.25 744.67 268.88" style="fill: lime; stroke: red; stroke-linecap: round; stroke-linejoin: round; stroke-width: 3px;"/>
  <polygon points="865.92 87.01 805.3 87.01 805.3 147.63 865.92 87.01" style="fill: lime; stroke: red; stroke-linecap: round; stroke-linejoin: round; stroke-width: 3px;"/>
  <polygon points="744.67 87.01 744.67 147.63 805.3 147.63 744.67 87.01" style="fill: lime; stroke: red; stroke-linecap: round; stroke-linejoin: round; stroke-width: 3px;"/>
  <polygon points="684.05 87.01 684.05 147.63 744.67 147.63 684.05 87.01" style="fill: lime; stroke: red; stroke-linecap: round; stroke-linejoin: round; stroke-width: 3px;"/>
  <polygon points="865.92 87.01 865.92 26.39 805.3 26.39 865.92 87.01" style="fill: lime; stroke: red; stroke-linecap: round; stroke-linejoin: round; stroke-width: 3px;"/>
  <polygon points="744.67 26.39 744.67 87.01 805.3 87.01 744.67 26.39" style="fill: lime; stroke: red; stroke-linecap: round; stroke-linejoin: round; stroke-width: 3px;"/>
  <polygon points="744.67 26.39 684.05 26.39 684.05 87.01 744.67 26.39" style="fill: lime; stroke: red; stroke-linecap: round; stroke-linejoin: round; stroke-width: 3px;"/>
  <polygon points="926.54 147.63 926.54 208.25 987.16 208.25 926.54 147.63" style="fill: lime; stroke: red; stroke-linecap: round; stroke-linejoin: round; stroke-width: 3px;"/>
  <polygon points="865.92 208.25 926.54 208.25 926.54 147.63 865.92 208.25" style="fill: lime; stroke: red; stroke-linecap: round; stroke-linejoin: round; stroke-width: 3px;"/>
  <polygon points="926.54 87.01 926.54 147.63 987.16 147.63 926.54 87.01" style="fill: lime; stroke: red; stroke-linecap: round; stroke-linejoin: round; stroke-width: 3px;"/>
  <polygon points="865.92 87.01 865.92 147.63 926.54 147.63 865.92 87.01" style="fill: lime; stroke: red; stroke-linecap: round; stroke-linejoin: round; stroke-width: 3px;"/>
  <polygon points="865.92 268.88 805.3 268.88 805.3 329.5 865.92 268.88" style="fill: lime; stroke: red; stroke-linecap: round; stroke-linejoin: round; stroke-width: 3px;"/>
  <polygon points="805.3 268.88 744.67 268.88 744.67 329.5 805.3 268.88" style="fill: lime; stroke: red; stroke-linecap: round; stroke-linejoin: round; stroke-width: 3px;"/>
  <polygon points="684.05 268.88 684.05 329.5 744.67 329.5 684.05 268.88" style="fill: lime; stroke: red; stroke-linecap: round; stroke-linejoin: round; stroke-width: 3px;"/>
  <polygon points="805.3 268.88 865.92 268.88 865.92 208.25 805.3 268.88" style="fill: lime; stroke: red; stroke-linecap: round; stroke-linejoin: round; stroke-width: 3px;"/>
  <polygon points="744.67 208.25 744.67 268.88 805.3 268.88 744.67 208.25" style="fill: lime; stroke: red; stroke-linecap: round; stroke-linejoin: round; stroke-width: 3px;"/>
  <polygon points="926.54 268.88 926.54 329.5 987.16 329.5 926.54 268.88" style="fill: lime; stroke: red; stroke-linecap: round; stroke-linejoin: round; stroke-width: 3px;"/>
  <polygon points="865.92 268.88 865.92 329.5 926.54 329.5 865.92 268.88" style="fill: lime; stroke: red; stroke-linecap: round; stroke-linejoin: round; stroke-width: 3px;"/>
  <polygon points="987.16 208.25 926.54 208.25 926.54 268.88 987.16 208.25" style="fill: lime; stroke: red; stroke-linecap: round; stroke-linejoin: round; stroke-width: 3px;"/>
  <polygon points="926.54 268.88 926.54 208.25 865.92 208.25 926.54 268.88" style="fill: lime; stroke: red; stroke-linecap: round; stroke-linejoin: round; stroke-width: 3px;"/>
  <polygon points="926.54 26.39 926.54 87.01 987.16 87.01 926.54 26.39" style="fill: lime; stroke: red; stroke-linecap: round; stroke-linejoin: round; stroke-width: 3px;"/>
  <polygon points="865.92 26.39 865.92 87.01 926.54 87.01 865.92 26.39" style="fill: lime; stroke: red; stroke-linecap: round; stroke-linejoin: round; stroke-width: 3px;"/>
</svg>