<?xml version="1.0" encoding="UTF-8"?>
<svg id="Livello_1" data-name="Livello 1" xmlns="http://www.w3.org/2000/svg" version="1.1" viewBox="0 0 1000 362">
  <g>
    <polygon points="348.95 208.25 409.57 268.88 409.57 208.25 348.95 208.25" style="fill: #ccc; stroke: red; stroke-linecap: round; stroke-linejoin: round; stroke-width: 3px;"/>
    <g>
      <polygon points="470.19 147.63 530.81 208.25 530.81 147.63 470.19 147.63" style="fill: #ccc; stroke: red; stroke-linecap: round; stroke-linejoin: round; stroke-width: 3px;"/>
      <polygon points="409.57 147.63 470.19 208.25 470.19 147.63 409.57 147.63" style="fill: #ccc; stroke: red; stroke-linecap: round; stroke-linejoin: round; stroke-width: 3px;"/>
      <polygon points="348.95 147.63 409.57 208.25 409.57 147.63 348.95 147.63" style="fill: #ccc; stroke: red; stroke-linecap: round; stroke-linejoin: round; stroke-width: 3px;"/>
      <polygon points="470.19 87.01 530.81 147.63 530.81 87.01 470.19 87.01" style="fill: #ccc; stroke: red; stroke-linecap: round; stroke-linejoin: round; stroke-width: 3px;"/>
      <polygon points="409.57 87.01 470.19 147.63 470.19 87.01 409.57 87.01" style="fill: #ccc; stroke: red; stroke-linecap: round; stroke-linejoin: round; stroke-width: 3px;"/>
      <polygon points="348.95 87.01 409.57 147.63 409.57 87.01 348.95 87.01" style="fill: #ccc; stroke: red; stroke-linecap: round; stroke-linejoin: round; stroke-width: 3px;"/>
      <polygon points="470.19 26.39 530.81 87.01 530.81 26.39 470.19 26.39" style="fill: #ccc; stroke: red; stroke-linecap: round; stroke-linejoin: round; stroke-width: 3px;"/>
      <polygon points="409.57 26.39 470.19 87.01 470.19 26.39 409.57 26.39" style="fill: #ccc; stroke: red; stroke-linecap: round; stroke-linejoin: round; stroke-width: 3px;"/>
      <polygon points="348.95 26.39 409.57 87.01 409.57 26.39 348.95 26.39" style="fill: #ccc; stroke: red; stroke-linecap: round; stroke-linejoin: round; stroke-width: 3px;"/>
      <polygon points="591.43 147.63 652.05 208.25 652.05 147.63 591.43 147.63" style="fill: #ccc; stroke: red; stroke-linecap: round; stroke-linejoin: round; stroke-width: 3px;"/>
      <polygon points="530.81 147.63 591.43 208.25 591.43 147.63 530.81 147.63" style="fill: #ccc; stroke: red; stroke-linecap: round; stroke-linejoin: round; stroke-width: 3px;"/>
      <polygon points="591.43 87.01 652.05 147.63 652.05 87.01 591.43 87.01" style="fill: #ccc; stroke: red; stroke-linecap: round; stroke-linejoin: round; stroke-width: 3px;"/>
      <polygon points="530.81 87.01 591.43 147.63 591.43 87.01 530.81 87.01" style="fill: #ccc; stroke: red; stroke-linecap: round; stroke-linejoin: round; stroke-width: 3px;"/>
      <polygon points="470.19 268.88 530.81 329.5 530.81 268.88 470.19 268.88" style="fill: #ccc; stroke: red; stroke-linecap: round; stroke-linejoin: round; stroke-width: 3px;"/>
      <polygon points="409.57 268.88 470.19 329.5 470.19 268.88 409.57 268.88" style="fill: #ccc; stroke: red; stroke-linecap: round; stroke-linejoin: round; stroke-width: 3px;"/>
      <polygon points="348.95 268.88 409.57 329.5 409.57 268.88 348.95 268.88" style="fill: #ccc; stroke: red; stroke-linecap: round; stroke-linejoin: round; stroke-width: 3px;"/>
      <polygon points="470.19 208.25 530.81 268.88 530.81 208.25 470.19 208.25" style="fill: #ccc; stroke: red; stroke-linecap: round; stroke-linejoin: round; stroke-width: 3px;"/>
      <polygon points="409.57 208.25 470.19 268.88 470.19 208.25 409.57 208.25" style="fill: #ccc; stroke: red; stroke-linecap: round; stroke-linejoin: round; stroke-width: 3px;"/>
      <polygon points="348.95 208.25 348.95 268.88 409.57 268.88 348.95 208.25" style="fill: none; stroke: red; stroke-linecap: round; stroke-linejoin: round; stroke-width: 3px;"/>
      <polygon points="591.43 268.88 652.05 329.5 652.05 268.88 591.43 268.88" style="fill: #ccc; stroke: red; stroke-linecap: round; stroke-linejoin: round; stroke-width: 3px;"/>
      <polygon points="530.81 268.88 591.43 329.5 591.43 268.88 530.81 268.88" style="fill: #ccc; stroke: red; stroke-linecap: round; stroke-linejoin: round; stroke-width: 3px;"/>
      <polygon points="591.43 208.25 652.05 268.88 652.05 208.25 591.43 208.25" style="fill: #ccc; stroke: red; stroke-linecap: round; stroke-linejoin: round; stroke-width: 3px;"/>
      <polygon points="530.81 208.25 591.43 268.88 591.43 208.25 530.81 208.25" style="fill: #ccc; stroke: red; stroke-linecap: round; stroke-linejoin: round; stroke-width: 3px;"/>
      <polygon points="591.43 26.39 652.05 87.01 652.05 26.39 591.43 26.39" style="fill: #ccc; stroke: red; stroke-linecap: round; stroke-linejoin: round; stroke-width: 3px;"/>
      <polygon points="530.81 26.39 591.43 87.01 591.43 26.39 530.81 26.39" style="fill: #ccc; stroke: red; stroke-linecap: round; stroke-linejoin: round; stroke-width: 3px;"/>
    </g>
    <polygon points="470.19 147.63 470.19 208.25 530.81 208.25 470.19 147.63" style="fill: lime; stroke: red; stroke-linecap: round; stroke-linejoin: round; stroke-width: 3px;"/>
    <polygon points="409.57 147.63 409.57 208.25 470.19 208.25 409.57 147.63" style="fill: lime; stroke: red; stroke-linecap: round; stroke-linejoin: round; stroke-width: 3px;"/>
    <polygon points="348.95 147.63 348.95 208.25 409.57 208.25 348.95 147.63" style="fill: lime; stroke: red; stroke-linecap: round; stroke-linejoin: round; stroke-width: 3px;"/>
    <polygon points="348.95 208.25 348.95 268.88 409.57 268.88 348.95 208.25" style="fill: lime; stroke: red; stroke-linecap: round; stroke-linejoin: round; stroke-width: 3px;"/>
    <polygon points="470.19 87.01 470.19 147.63 530.81 147.63 470.19 87.01" style="fill: lime; stroke: red; stroke-linecap: round; stroke-linejoin: round; stroke-width: 3px;"/>
    <polygon points="409.57 87.01 409.57 147.63 470.19 147.63 409.57 87.01" style="fill: lime; stroke: red; stroke-linecap: round; stroke-linejoin: round; stroke-width: 3px;"/>
    <polygon points="348.95 87.01 348.95 147.63 409.57 147.63 348.95 87.01" style="fill: lime; stroke: red; stroke-linecap: round; stroke-linejoin: round; stroke-width: 3px;"/>
    <polygon points="470.19 26.39 470.19 87.01 530.81 87.01 470.19 26.39" style="fill: lime; stroke: red; stroke-linecap: round; stroke-linejoin: round; stroke-width: 3px;"/>
    <polygon points="409.57 26.39 409.57 87.01 470.19 87.01 409.57 26.39" style="fill: lime; stroke: red; stroke-linecap: round; stroke-linejoin: round; stroke-width: 3px;"/>
    <polygon points="348.95 26.39 348.95 87.01 409.57 87.01 348.95 26.39" style="fill: lime; stroke: red; stroke-linecap: round; stroke-linejoin: round; stroke-width: 3px;"/>
    <polygon points="591.43 147.63 591.43 208.25 652.05 208.25 591.43 147.63" style="fill: lime; stroke: red; stroke-linecap: round; stroke-linejoin: round; stroke-width: 3px;"/>
    <polygon points="530.81 147.63 530.81 208.25 591.43 208.25 530.81 147.63" style="fill: lime; stroke: red; stroke-linecap: round; stroke-linejoin: round; stroke-width: 3px;"/>
    <polygon points="591.43 87.01 591.43 147.63 652.05 147.63 591.43 87.01" style="fill: lime; stroke: red; stroke-linecap: round; stroke-linejoin: round; stroke-width: 3px;"/>
    <polygon points="530.81 87.01 530.81 147.63 591.43 147.63 530.81 87.01" style="fill: lime; stroke: red; stroke-linecap: round; stroke-linejoin: round; stroke-width: 3px;"/>
    <polygon points="470.19 268.88 470.19 329.5 530.81 329.5 470.19 268.88" style="fill: lime; stroke: red; stroke-linecap: round; stroke-linejoin: round; stroke-width: 3px;"/>
    <polygon points="409.57 268.88 409.57 329.5 470.19 329.5 409.57 268.88" style="fill: lime; stroke: red; stroke-linecap: round; stroke-linejoin: round; stroke-width: 3px;"/>
    <polygon points="348.95 268.88 348.95 329.5 409.57 329.5 348.95 268.88" style="fill: lime; stroke: red; stroke-linecap: round; stroke-linejoin: round; stroke-width: 3px;"/>
    <polygon points="470.19 208.25 470.19 268.88 530.81 268.88 470.19 208.25" style="fill: lime; stroke: red; stroke-linecap: round; stroke-linejoin: round; stroke-width: 3px;"/>
    <polygon points="409.57 208.25 409.57 268.88 470.19 268.88 409.57 208.25" style="fill: lime; stroke: red; stroke-linecap: round; stroke-linejoin: round; stroke-width: 3px;"/>
    <polygon points="591.43 268.88 591.43 329.5 652.05 329.5 591.43 268.88" style="fill: lime; stroke: red; stroke-linecap: round; stroke-linejoin: round; stroke-width: 3px;"/>
    <polygon points="530.81 268.88 530.81 329.5 591.43 329.5 530.81 268.88" style="fill: lime; stroke: red; stroke-linecap: round; stroke-linejoin: round; stroke-width: 3px;"/>
    <polygon points="591.43 208.25 591.43 268.88 652.05 268.88 591.43 208.25" style="fill: lime; stroke: red; stroke-linecap: round; stroke-linejoin: round; stroke-width: 3px;"/>
    <polygon points="530.81 208.25 530.81 268.88 591.43 268.88 530.81 208.25" style="fill: lime; stroke: red; stroke-linecap: round; stroke-linejoin: round; stroke-width: 3px;"/>
    <polygon points="591.43 26.39 591.43 87.01 652.05 87.01 591.43 26.39" style="fill: lime; stroke: red; stroke-linecap: round; stroke-linejoin: round; stroke-width: 3px;"/>
    <polygon points="530.81 26.39 530.81 87.01 591.43 87.01 530.81 26.39" style="fill: lime; stroke: red; stroke-linecap: round; stroke-linejoin: round; stroke-width: 3px;"/>
  </g>
  <g>
    <polygon points="821.86 199.59 771.86 199.59 746.86 242.9 771.86 286.2 821.86 286.2 846.86 242.9 821.86 199.59" style="fill: #ccc; stroke: red; stroke-linecap: round; stroke-linejoin: round; stroke-width: 3px;"/>
    <polygon points="746.79 242.9 696.79 242.9 671.79 286.2 696.79 329.5 746.79 329.5 771.79 286.2 746.79 242.9" style="fill: #ccc; stroke: red; stroke-linecap: round; stroke-linejoin: round; stroke-width: 3px;"/>
    <polygon points="746.79 156.29 696.79 156.29 671.79 199.59 696.79 242.9 746.79 242.9 771.79 199.59 746.79 156.29" style="fill: #ccc; stroke: red; stroke-linecap: round; stroke-linejoin: round; stroke-width: 3px;"/>
    <polygon points="896.93 242.9 846.93 242.9 821.93 286.2 846.93 329.5 896.93 329.5 921.93 286.2 896.93 242.9" style="fill: #ccc; stroke: red; stroke-linecap: round; stroke-linejoin: round; stroke-width: 3px;"/>
    <polygon points="896.93 156.29 846.93 156.29 821.93 199.59 846.93 242.9 896.93 242.9 921.93 199.59 896.93 156.29" style="fill: #ccc; stroke: red; stroke-linecap: round; stroke-linejoin: round; stroke-width: 3px;"/>
    <polygon points="972 199.59 922 199.59 897 242.9 922 286.2 972 286.2 997 242.9 972 199.59" style="fill: #ccc; stroke: red; stroke-linecap: round; stroke-linejoin: round; stroke-width: 3px;"/>
    <polygon points="972 112.99 922 112.99 897 156.29 922 199.59 972 199.59 997 156.29 972 112.99" style="fill: #ccc; stroke: red; stroke-linecap: round; stroke-linejoin: round; stroke-width: 3px;"/>
    <polygon points="972 26.39 922 26.39 897 69.69 922 112.99 972 112.99 997 69.69 972 26.39" style="fill: #ccc; stroke: red; stroke-linecap: round; stroke-linejoin: round; stroke-width: 3px;"/>
    <polygon points="746.79 69.69 696.79 69.69 671.79 112.99 696.79 156.29 746.79 156.29 771.79 112.99 746.79 69.69" style="fill: #ccc; stroke: red; stroke-linecap: round; stroke-linejoin: round; stroke-width: 3px;"/>
    <polygon points="821.86 112.99 771.86 112.99 746.86 156.29 771.86 199.59 821.86 199.59 846.86 156.29 821.86 112.99" style="fill: #ccc; stroke: red; stroke-linecap: round; stroke-linejoin: round; stroke-width: 3px;"/>
    <polygon points="821.86 26.39 771.86 26.39 746.86 69.69 771.86 112.99 821.86 112.99 846.86 69.69 821.86 26.39" style="fill: #ccc; stroke: red; stroke-linecap: round; stroke-linejoin: round; stroke-width: 3px;"/>
    <polygon points="896.93 69.69 846.93 69.69 821.93 112.99 846.93 156.29 896.93 156.29 921.93 112.99 896.93 69.69" style="fill: #ccc; stroke: red; stroke-linecap: round; stroke-linejoin: round; stroke-width: 3px;"/>
  </g>
  <g>
    <rect x="14.34" y="87.01" width="60.62" height="60.62" style="fill: #ccc; stroke: red; stroke-linecap: round; stroke-linejoin: round; stroke-width: 3px;"/>
    <rect x="74.96" y="87.01" width="60.62" height="60.62" style="fill: #ccc; stroke: red; stroke-linecap: round; stroke-linejoin: round; stroke-width: 3px;"/>
    <rect x="135.58" y="87.01" width="60.62" height="60.62" style="fill: #ccc; stroke: red; stroke-linecap: round; stroke-linejoin: round; stroke-width: 3px;"/>
    <rect x="14.34" y="147.63" width="60.62" height="60.62" style="fill: #ccc; stroke: red; stroke-linecap: round; stroke-linejoin: round; stroke-width: 3px;"/>
    <rect x="74.96" y="147.63" width="60.62" height="60.62" style="fill: #ccc; stroke: red; stroke-linecap: round; stroke-linejoin: round; stroke-width: 3px;"/>
    <rect x="135.58" y="147.63" width="60.62" height="60.62" style="fill: #ccc; stroke: red; stroke-linecap: round; stroke-linejoin: round; stroke-width: 3px;"/>
    <rect x="14.34" y="26.39" width="60.62" height="60.62" style="fill: #ccc; stroke: red; stroke-linecap: round; stroke-linejoin: round; stroke-width: 3px;"/>
    <rect x="74.96" y="26.39" width="60.62" height="60.62" style="fill: #ccc; stroke: red; stroke-linecap: round; stroke-linejoin: round; stroke-width: 3px;"/>
    <rect x="135.58" y="26.39" width="60.62" height="60.62" style="fill: #ccc; stroke: red; stroke-linecap: round; stroke-linejoin: round; stroke-width: 3px;"/>
    <rect x="196.2" y="87.01" width="60.62" height="60.62" style="fill: #ccc; stroke: red; stroke-linecap: round; stroke-linejoin: round; stroke-width: 3px;"/>
    <rect x="256.82" y="87.01" width="60.62" height="60.62" style="fill: #ccc; stroke: red; stroke-linecap: round; stroke-linejoin: round; stroke-width: 3px;"/>
    <rect x="196.2" y="147.63" width="60.62" height="60.62" style="fill: #ccc; stroke: red; stroke-linecap: round; stroke-linejoin: round; stroke-width: 3px;"/>
    <rect x="256.82" y="147.63" width="60.62" height="60.62" style="fill: #ccc; stroke: red; stroke-linecap: round; stroke-linejoin: round; stroke-width: 3px;"/>
    <rect x="14.34" y="208.25" width="60.62" height="60.62" style="fill: #ccc; stroke: red; stroke-linecap: round; stroke-linejoin: round; stroke-width: 3px;"/>
    <rect x="74.96" y="208.25" width="60.62" height="60.62" style="fill: #ccc; stroke: red; stroke-linecap: round; stroke-linejoin: round; stroke-width: 3px;"/>
    <rect x="135.58" y="208.25" width="60.62" height="60.62" style="fill: #ccc; stroke: red; stroke-linecap: round; stroke-linejoin: round; stroke-width: 3px;"/>
    <rect x="14.34" y="268.88" width="60.62" height="60.62" style="fill: #ccc; stroke: red; stroke-linecap: round; stroke-linejoin: round; stroke-width: 3px;"/>
    <rect x="74.96" y="268.88" width="60.62" height="60.62" style="fill: #ccc; stroke: red; stroke-linecap: round; stroke-linejoin: round; stroke-width: 3px;"/>
    <rect x="135.58" y="268.88" width="60.62" height="60.62" style="fill: #ccc; stroke: red; stroke-linecap: round; stroke-linejoin: round; stroke-width: 3px;"/>
    <rect x="196.2" y="208.25" width="60.62" height="60.62" style="fill: #ccc; stroke: red; stroke-linecap: round; stroke-linejoin: round; stroke-width: 3px;"/>
    <rect x="256.82" y="208.25" width="60.62" height="60.62" style="fill: #ccc; stroke: red; stroke-linecap: round; stroke-linejoin: round; stroke-width: 3px;"/>
    <rect x="196.2" y="268.88" width="60.62" height="60.62" style="fill: #ccc; stroke: red; stroke-linecap: round; stroke-linejoin: round; stroke-width: 3px;"/>
    <rect x="256.82" y="268.88" width="60.62" height="60.62" style="fill: #ccc; stroke: red; stroke-linecap: round; stroke-linejoin: round; stroke-width: 3px;"/>
    <rect x="196.2" y="26.39" width="60.62" height="60.62" style="fill: #ccc; stroke: red; stroke-linecap: round; stroke-linejoin: round; stroke-width: 3px;"/>
    <rect x="256.82" y="26.39" width="60.62" height="60.62" style="fill: #ccc; stroke: red; stroke-linecap: round; stroke-linejoin: round; stroke-width: 3px;"/>
  </g>
</svg>