<?xml version="1.0" encoding="UTF-8"?>
<svg xmlns="http://www.w3.org/2000/svg" version="1.1" viewBox="0 0 1000 500">
  <g id="triangolo">
    <path d="M102.38,164.24c0-13.77-7.45-25.79-18.54-32.28l-18.72,32.43h37.25c0-.05,0-.1,0-.15Z" style="fill: none; stroke: red; stroke-miterlimit: 10; stroke-width: 2px;"/>
    <polygon points="123.48 63.47 65.12 164.54 181.83 164.54 123.48 63.47" style="fill: none; stroke: #1d1d1b; stroke-linecap: round; stroke-miterlimit: 10; stroke-width: 3px;"/>
    <polygon points="123.24 194.49 98.76 236.89 147.72 236.89 123.24 194.49" style="fill: none; stroke: #1d1d1b; stroke-linejoin: round; stroke-width: 3px;"/>
    <polygon points="123.24 194.49 147.72 236.89 172.21 194.49 123.24 194.49" style="fill: none; stroke: #1d1d1b; stroke-linejoin: round; stroke-width: 3px;"/>
    <polygon points="147.72 236.89 196.69 236.89 172.21 194.49 147.72 236.89" style="fill: none; stroke: #1d1d1b; stroke-linejoin: round; stroke-width: 3px;"/>
    <polygon points="172.21 279.25 196.69 236.85 147.72 236.85 172.21 279.25" style="fill: none; stroke: #1d1d1b; stroke-linejoin: round; stroke-width: 3px;"/>
    <polygon points="172.21 279.25 147.72 236.85 123.24 279.25 172.21 279.25" style="fill: #ccc; stroke: #000; stroke-linejoin: round; stroke-width: 3px;"/>
    <polygon points="147.72 236.85 98.76 236.85 123.24 279.25 147.72 236.85" style="fill: #ccc; stroke: #000; stroke-linejoin: round; stroke-width: 3px;"/>
    <polygon points="123.24 278.96 98.76 321.37 147.72 321.37 123.24 278.96" style="fill: none; stroke: #1d1d1b; stroke-linejoin: round; stroke-width: 3px;"/>
    <polygon points="123.24 278.96 147.72 321.37 172.21 278.96 123.24 278.96" style="fill: #ccc; stroke: #000; stroke-linejoin: round; stroke-width: 3px;"/>
    <polygon points="147.72 321.37 196.69 321.37 172.21 278.96 147.72 321.37" style="fill: none; stroke: #1d1d1b; stroke-linejoin: round; stroke-width: 3px;"/>
    <polygon points="172.21 363.73 196.69 321.32 147.72 321.32 172.21 363.73" style="fill: none; stroke: #1d1d1b; stroke-linejoin: round; stroke-width: 3px;"/>
    <polygon points="172.21 363.73 147.72 321.32 123.24 363.73 172.21 363.73" style="fill: none; stroke: #1d1d1b; stroke-linejoin: round; stroke-width: 3px;"/>
    <polygon points="147.72 321.32 98.76 321.32 123.24 363.73 147.72 321.32" style="fill: none; stroke: #1d1d1b; stroke-linejoin: round; stroke-width: 3px;"/>
    <polygon points="49.94 236.62 25.46 279.03 74.42 279.03 49.94 236.62" style="fill: none; stroke: #1d1d1b; stroke-linejoin: round; stroke-width: 3px;"/>
    <polygon points="49.94 236.62 74.42 279.03 98.91 236.62 49.94 236.62" style="fill: none; stroke: #1d1d1b; stroke-linejoin: round; stroke-width: 3px;"/>
    <polygon points="74.42 279.03 123.39 279.03 98.91 236.62 74.42 279.03" style="fill: #ccc; stroke: #1d1d1b; stroke-linejoin: round; stroke-width: 3px;"/>
    <polygon points="98.91 321.39 123.39 278.98 74.42 278.98 98.91 321.39" style="fill: #ccc; stroke: #000; stroke-linejoin: round; stroke-width: 3px;"/>
    <polygon points="98.91 321.39 74.42 278.98 49.94 321.39 98.91 321.39" style="fill: none; stroke: #1d1d1b; stroke-linejoin: round; stroke-width: 3px;"/>
    <polygon points="147.5 321.39 123.02 278.98 98.54 321.39 147.5 321.39" style="fill: #ccc; stroke: #1d1d1b; stroke-linejoin: round; stroke-width: 3px;"/>
    <polygon points="74.42 278.98 25.46 278.98 49.94 321.39 74.42 278.98" style="fill: none; stroke: #1d1d1b; stroke-linejoin: round; stroke-width: 3px;"/>
    <g>
      <path d="M81.04,157.88c-.34,0-.66-.06-.97-.17-.31-.11-.59-.29-.84-.54-.25-.25-.44-.58-.58-.99-.14-.41-.22-.91-.22-1.51,0-.55.07-1.04.19-1.47.12-.43.3-.8.54-1.1.23-.3.51-.53.84-.69.33-.16.69-.24,1.09-.24.44,0,.82.08,1.15.25s.6.4.8.69c.2.29.33.61.37.97h-1.36c-.05-.23-.16-.41-.33-.54s-.38-.19-.63-.19c-.42,0-.75.18-.97.55s-.33.87-.34,1.51h.04c.1-.19.23-.36.4-.5.17-.14.36-.24.57-.32s.44-.11.68-.11c.39,0,.73.09,1.03.27.3.18.54.43.71.75.17.32.26.68.26,1.09,0,.44-.1.83-.31,1.18-.2.34-.49.61-.86.81-.37.19-.79.29-1.28.29ZM81.04,156.79c.21,0,.4-.05.57-.15s.3-.24.4-.41.14-.37.14-.59-.05-.41-.14-.58c-.09-.17-.22-.31-.39-.41s-.35-.15-.57-.15c-.16,0-.31.03-.44.09-.13.06-.25.14-.35.25-.1.11-.18.23-.24.37-.06.14-.09.29-.09.44,0,.21.05.4.15.58.1.17.23.31.4.42.17.1.36.16.57.16Z" style="fill: #000; stroke-width: 0px;"/>
      <path d="M87.02,157.93c-.55,0-1.02-.14-1.41-.4-.39-.27-.7-.66-.91-1.16-.21-.51-.32-1.12-.31-1.83,0-.71.11-1.32.32-1.82.21-.5.51-.88.91-1.15s.86-.39,1.41-.39,1.02.13,1.41.4c.39.26.7.65.91,1.15s.32,1.11.32,1.82c0,.72-.11,1.33-.32,1.83-.21.51-.51.9-.91,1.16-.39.27-.86.4-1.41.4ZM87.02,156.79c.37,0,.67-.19.9-.56.22-.38.33-.94.33-1.69,0-.49-.05-.91-.15-1.24-.1-.33-.24-.58-.43-.74-.18-.17-.4-.25-.65-.25-.37,0-.67.19-.89.56-.22.37-.34.93-.34,1.67,0,.5.05.92.15,1.25.1.33.24.59.43.75.19.17.4.25.65.25Z" style="fill: #000; stroke-width: 0px;"/>
      <path d="M91.62,151.76c0-.51.4-.93,1.18-.93s1.18.42,1.18.93-.4.93-1.18.93-1.18-.42-1.18-.93ZM93.19,151.76c0-.25-.17-.43-.39-.43s-.39.18-.39.43.17.43.39.43.39-.18.39-.43Z" style="fill: #000; stroke-width: 0px;"/>
    </g>
    <circle cx="123.31" cy="278.77" r="26.17" style="fill: none; stroke: red; stroke-miterlimit: 10; stroke-width: 2px;"/>
  </g>
  <g id="quadrato">
    <path d="M315.75,126.64c-.1,0-.21,0-.31,0v37.75h37.75c0-.08,0-.16,0-.25,0-20.71-16.76-37.51-37.45-37.51Z" style="fill: none; stroke: red; stroke-miterlimit: 10; stroke-width: 2px;"/>
    <rect x="315.56" y="57.09" width="106.84" height="106.84" style="fill: none; stroke: #1d1d1b; stroke-miterlimit: 10; stroke-width: 3px;"/>
    <rect x="326.62" y="234.89" width="43" height="43" style="fill: #ccc; stroke: #1d1d1b; stroke-miterlimit: 10; stroke-width: 3px;"/>
    <rect x="326.62" y="278.25" width="43" height="43" style="fill: none; stroke: #1d1d1b; stroke-miterlimit: 10; stroke-width: 3px;"/>
    <rect x="369.62" y="234.89" width="43" height="43" style="fill: none; stroke: #1d1d1b; stroke-miterlimit: 10; stroke-width: 3px;"/>
    <rect x="326.62" y="277.92" width="43" height="43" style="fill: #ccc; stroke: #1d1d1b; stroke-miterlimit: 10; stroke-width: 3px;"/>
    <rect x="369.62" y="277.92" width="43" height="43" style="fill: #ccc; stroke: #1d1d1b; stroke-miterlimit: 10; stroke-width: 3px;"/>
    <rect x="283.57" y="321" width="43" height="43" style="fill: none; stroke: #1d1d1b; stroke-miterlimit: 10; stroke-width: 3px;"/>
    <rect x="326.57" y="321" width="43" height="43" style="fill: none; stroke: #1d1d1b; stroke-miterlimit: 10; stroke-width: 3px;"/>
    <rect x="283.57" y="277.92" width="43" height="43" style="fill: none; stroke: #1d1d1b; stroke-miterlimit: 10; stroke-width: 3px;"/>
    <rect x="412.39" y="191.95" width="42.85" height="42.85" transform="translate(867.63 426.74) rotate(180)" style="fill: none; stroke: #1d1d1b; stroke-miterlimit: 10; stroke-width: 3px;"/>
    <rect x="369.54" y="191.95" width="42.85" height="42.85" transform="translate(781.93 426.74) rotate(180)" style="fill: none; stroke: #1d1d1b; stroke-miterlimit: 10; stroke-width: 3px;"/>
    <rect x="412.39" y="234.87" width="42.85" height="42.85" transform="translate(867.63 512.59) rotate(180)" style="fill: none; stroke: #1d1d1b; stroke-miterlimit: 10; stroke-width: 3px;"/>
    <rect x="369.78" y="234.87" width="42.85" height="42.85" transform="translate(782.4 512.59) rotate(180)" style="fill: #ccc; stroke: #1d1d1b; stroke-miterlimit: 10; stroke-width: 3px;"/>
    <g>
      <path d="M325.99,148.54c.34,0,.66.06.97.17.31.11.59.29.83.54.25.25.44.57.58.98.14.41.22.91.22,1.5,0,.55-.06,1.05-.19,1.48-.12.43-.3.8-.53,1.11s-.51.53-.84.69-.69.24-1.1.24c-.44,0-.82-.08-1.15-.25s-.6-.4-.8-.69c-.2-.29-.33-.62-.37-.99h1.36c.05.24.16.42.33.55.17.13.38.2.63.2.42,0,.75-.19.97-.56.22-.37.33-.88.33-1.52h-.04c-.1.19-.23.35-.4.49-.17.14-.36.24-.57.32s-.44.11-.68.11c-.38,0-.73-.09-1.03-.27-.3-.18-.54-.43-.71-.75-.17-.32-.26-.68-.26-1.08,0-.44.1-.83.3-1.17.2-.34.49-.61.86-.8s.79-.29,1.28-.29ZM326,149.62c-.21,0-.41.05-.57.15s-.3.24-.4.41c-.1.17-.14.36-.14.58,0,.21.05.41.14.58.09.17.22.31.39.41.16.1.35.15.57.15.16,0,.31-.03.44-.09s.25-.14.35-.25c.1-.1.18-.23.24-.36.06-.14.09-.28.09-.44,0-.21-.05-.4-.15-.57-.1-.17-.23-.31-.4-.41-.17-.1-.36-.16-.57-.16Z" style="fill: #000; stroke-width: 0px;"/>
      <path d="M332.11,155.3c-.55,0-1.02-.14-1.41-.4-.39-.27-.7-.66-.91-1.16-.21-.51-.32-1.12-.31-1.83,0-.71.11-1.32.32-1.82.21-.5.51-.88.91-1.15s.86-.39,1.41-.39,1.02.13,1.41.4c.39.26.7.65.91,1.15s.32,1.11.32,1.82c0,.72-.11,1.33-.32,1.83-.21.51-.51.9-.91,1.16-.39.27-.86.4-1.41.4ZM332.11,154.15c.37,0,.67-.19.9-.56.22-.38.33-.94.33-1.69,0-.49-.05-.91-.15-1.24-.1-.33-.24-.58-.43-.74-.18-.17-.4-.25-.65-.25-.37,0-.67.19-.89.56-.22.37-.34.93-.34,1.67,0,.5.05.92.15,1.25.1.33.24.59.43.75.19.17.4.25.65.25Z" style="fill: #000; stroke-width: 0px;"/>
      <path d="M336.71,149.13c0-.51.4-.93,1.18-.93s1.18.42,1.18.93-.4.93-1.18.93-1.18-.42-1.18-.93ZM338.28,149.13c0-.25-.17-.43-.39-.43s-.39.18-.39.43.17.43.39.43.39-.18.39-.43Z" style="fill: #000; stroke-width: 0px;"/>
    </g>
    <circle cx="370.01" cy="278.77" r="26.17" style="fill: none; stroke: red; stroke-miterlimit: 10; stroke-width: 2px;"/>
  </g>
  <g id="esagno">
    <path d="M581.96,126.64c-6.89,0-13.33,1.87-18.88,5.12l18.68,32.35h37.58s0-.06,0-.09c0-20.64-16.74-37.38-37.38-37.38Z" style="fill: none; stroke: red; stroke-miterlimit: 10; stroke-width: 2px;"/>
    <polygon points="649.14 47.4 581.75 47.4 548.06 105.75 581.75 164.11 649.14 164.11 682.83 105.75 649.14 47.4" style="fill: none; stroke: #1d1d1b; stroke-miterlimit: 10; stroke-width: 3px;"/>
    <polygon points="599.66 249.56 566.79 249.56 550.36 278.03 566.79 306.49 599.66 306.49 616.09 278.03 599.66 249.56" style="fill: #ccc; stroke: #1d1d1b; stroke-miterlimit: 10; stroke-width: 3px;"/>
    <polygon points="648.91 221.1 616.05 221.1 599.61 249.56 616.05 278.03 648.91 278.03 665.35 249.56 648.91 221.1" style="fill: #ccc; stroke: #1d1d1b; stroke-miterlimit: 10; stroke-width: 3px;"/>
    <polygon points="599.61 306.49 616.05 334.96 648.91 334.96 665.35 306.49 648.91 278.03 616.05 278.03 599.61 306.49" style="fill: #ccc; stroke: #1d1d1b; stroke-miterlimit: 10; stroke-width: 3px;"/>
    <polygon points="698.22 249.56 665.35 249.56 648.92 278.03 665.35 306.49 698.22 306.49 714.65 278.03 698.22 249.56" style="fill: none; stroke: #1d1d1b; stroke-miterlimit: 10; stroke-width: 3px;"/>
    <polygon points="599.63 306.32 566.77 306.32 550.33 334.79 566.77 363.25 599.63 363.25 616.07 334.79 599.63 306.32" style="fill: none; stroke: #1d1d1b; stroke-miterlimit: 10; stroke-width: 3px;"/>
    <polygon points="550.33 221.27 566.77 249.73 599.63 249.73 616.07 221.27 599.63 192.8 566.77 192.8 550.33 221.27" style="fill: none; stroke: #1d1d1b; stroke-miterlimit: 10; stroke-width: 3px;"/>
    <g>
      <path d="M586.07,146.72v6.52h-1.38v-5.21h-.04l-1.49.94v-1.22l1.62-1.02h1.3Z" style="fill: #000; stroke-width: 0px;"/>
      <path d="M587.63,153.24v-.99l2.32-2.15c.2-.19.36-.36.5-.52.13-.15.24-.3.31-.45.07-.15.11-.31.11-.48,0-.19-.04-.36-.13-.5s-.21-.25-.36-.32-.32-.11-.51-.11-.37.04-.52.12c-.15.08-.26.2-.34.35s-.12.33-.12.54h-1.31c0-.43.1-.8.29-1.11s.46-.56.81-.73c.35-.17.75-.26,1.2-.26s.88.08,1.22.25c.35.16.62.39.81.68.19.29.29.62.29,1,0,.25-.05.49-.14.73-.1.24-.27.51-.51.8s-.59.64-1.04,1.05l-.95.93v.04h2.74v1.13h-4.65Z" style="fill: #000; stroke-width: 0px;"/>
      <path d="M595.83,153.39c-.55,0-1.02-.14-1.41-.4-.39-.27-.7-.66-.91-1.16-.21-.51-.32-1.12-.31-1.83,0-.71.11-1.32.32-1.82.21-.5.51-.88.91-1.15.39-.26.86-.39,1.41-.39s1.02.13,1.41.4c.39.26.7.65.91,1.15.21.5.32,1.11.32,1.82,0,.72-.11,1.33-.32,1.83-.21.51-.51.9-.91,1.16-.39.27-.86.4-1.41.4ZM595.83,152.24c.37,0,.67-.19.9-.56.22-.38.33-.94.33-1.69,0-.49-.05-.91-.15-1.24-.1-.33-.24-.58-.43-.74-.18-.17-.4-.25-.65-.25-.37,0-.67.19-.89.56-.22.37-.34.93-.34,1.67,0,.5.05.92.15,1.25s.24.59.43.75c.18.17.4.25.65.25Z" style="fill: #000; stroke-width: 0px;"/>
      <path d="M600.43,147.22c0-.51.4-.93,1.18-.93s1.18.42,1.18.93-.4.93-1.18.93-1.18-.42-1.18-.93ZM602,147.22c0-.25-.17-.43-.39-.43s-.39.18-.39.43.17.43.39.43.39-.18.39-.43Z" style="fill: #000; stroke-width: 0px;"/>
    </g>
    <circle cx="615.22" cy="278.77" r="26.17" style="fill: none; stroke: red; stroke-miterlimit: 10; stroke-width: 2px;"/>
  </g>
  <g id="Pentagono">
    <path d="M865.14,126.03c-4.05,0-7.95.65-11.6,1.85l11.5,35.39h37.44c-.05-20.58-16.75-37.24-37.34-37.24Z" style="fill: none; stroke: red; stroke-linecap: round; stroke-miterlimit: 10; stroke-width: 2px;"/>
    <polygon points="903.23 45.65 841.44 90.54 865.04 163.17 941.41 163.17 965.01 90.54 903.23 45.65" style="fill: none; stroke: #1d1d1b; stroke-linecap: round; stroke-miterlimit: 10; stroke-width: 3px;"/>
    <polygon points="902.8 278.05 875.32 298.02 885.82 330.32 919.78 330.32 930.28 298.02 902.8 278.05" style="fill: #ccc; stroke: #1d1d1b; stroke-linecap: round; stroke-miterlimit: 10; stroke-width: 3px;"/>
    <polygon points="847.72 278.05 875.2 298.02 902.68 278.05 892.18 245.75 858.22 245.75 847.72 278.05" style="fill: #ccc; stroke: #1d1d1b; stroke-linecap: round; stroke-miterlimit: 10; stroke-width: 3px;"/>
    <polygon points="830.63 330.26 858.11 350.22 885.59 330.26 875.09 297.96 841.13 297.96 830.63 330.26" style="fill: none; stroke: #1d1d1b; stroke-linecap: round; stroke-miterlimit: 10; stroke-width: 3px;"/>
    <polygon points="813.5 277.72 847.46 277.72 857.96 245.42 830.48 225.46 803 245.42 813.5 277.72" style="fill: none; stroke: #1d1d1b; stroke-linecap: round; stroke-miterlimit: 10; stroke-width: 3px;"/>
    <polygon points="920.04 330.26 947.52 350.22 975 330.26 964.5 297.96 930.54 297.96 920.04 330.26" style="fill: none; stroke: #1d1d1b; stroke-linecap: round; stroke-miterlimit: 10; stroke-width: 3px;"/>
    <polygon points="831.29 225.6 858.77 245.56 886.25 225.6 875.75 193.3 841.79 193.3 831.29 225.6" style="fill: none; stroke: #1d1d1b; stroke-linecap: round; stroke-miterlimit: 10; stroke-width: 3px;"/>
    <polygon points="875.29 362.6 902.77 382.56 930.25 362.6 919.75 330.3 885.79 330.3 875.29 362.6" style="fill: none; stroke: #1d1d1b; stroke-linecap: round; stroke-miterlimit: 10; stroke-width: 3px;"/>
    <polygon points="936.72 278.18 947.22 245.87 919.74 225.91 892.26 245.87 902.76 278.18 936.72 278.18" style="fill: #ccc; stroke: #1d1d1b; stroke-linecap: round; stroke-miterlimit: 10; stroke-width: 3px;"/>
    <g>
      <path d="M870.34,147.91v6.52h-1.38v-5.21h-.04l-1.49.94v-1.22l1.61-1.02h1.3Z" style="fill: #000; stroke-width: 0px;"/>
      <path d="M874.45,154.57c-.55,0-1.02-.14-1.41-.4-.39-.27-.7-.65-.91-1.16-.21-.51-.32-1.12-.31-1.83,0-.71.11-1.32.32-1.82.21-.5.51-.88.91-1.14.39-.26.86-.39,1.41-.39s1.01.13,1.41.4c.39.26.7.64.91,1.14.21.5.32,1.1.32,1.82,0,.71-.11,1.33-.32,1.83-.21.51-.51.89-.91,1.16-.39.27-.86.4-1.41.4ZM874.45,153.43c.37,0,.67-.19.89-.56.22-.38.33-.94.33-1.69,0-.49-.05-.91-.15-1.23-.1-.33-.24-.58-.43-.74-.18-.17-.4-.25-.65-.25-.37,0-.67.19-.89.56-.22.37-.33.93-.34,1.67,0,.5.05.92.15,1.25.1.33.24.58.43.75s.4.25.65.25Z" style="fill: #000; stroke-width: 0px;"/>
      <path d="M880.49,154.52c-.49,0-.93-.08-1.31-.24s-.68-.38-.9-.66c-.22-.28-.33-.59-.33-.95,0-.27.06-.52.19-.75s.29-.42.51-.57c.21-.15.45-.25.72-.29v-.04c-.35-.07-.63-.24-.85-.51-.22-.27-.32-.58-.32-.94,0-.34.1-.64.3-.9s.47-.47.81-.62c.34-.15.74-.23,1.18-.23s.83.08,1.18.23c.34.15.62.36.81.62.2.26.3.56.3.9,0,.36-.11.67-.33.94-.22.27-.5.44-.84.51v.04c.26.04.5.14.71.29.21.15.38.34.51.57.13.23.19.48.19.75,0,.35-.11.67-.33.95-.22.28-.52.5-.9.66s-.82.24-1.31.24ZM880.49,153.51c.22,0,.41-.04.57-.12.16-.08.29-.19.38-.33.09-.14.14-.3.14-.49s-.05-.36-.14-.5c-.1-.15-.22-.26-.39-.34-.16-.08-.35-.13-.56-.13s-.4.04-.56.13c-.17.08-.3.2-.39.34-.09.15-.14.31-.14.5s.04.35.14.49c.09.14.22.25.38.33.17.08.36.12.57.12ZM880.49,150.6c.18,0,.34-.04.49-.11.14-.07.25-.18.33-.31.08-.13.12-.28.12-.46s-.04-.32-.12-.45c-.08-.13-.19-.23-.33-.3-.14-.07-.3-.11-.49-.11s-.35.04-.49.11c-.14.07-.25.17-.33.3-.08.13-.12.28-.12.45s.04.32.12.46c.08.13.19.23.33.31.14.07.3.11.49.11Z" style="fill: #000; stroke-width: 0px;"/>
      <path d="M884.96,148.42c0-.51.4-.92,1.18-.92s1.18.42,1.18.92-.4.92-1.18.92-1.18-.42-1.18-.92ZM886.53,148.42c0-.25-.17-.43-.39-.43s-.39.18-.39.43.17.43.39.43.39-.18.39-.43Z" style="fill: #000; stroke-width: 0px;"/>
    </g>
    <path d="M924.11,293.54c-4.78,6.32-12.36,10.4-20.89,10.4-14.45,0-26.17-11.71-26.17-26.17s11.71-26.17,26.17-26.17,26.17,11.71,26.17,26.17" style="fill: none; stroke: red; stroke-miterlimit: 10; stroke-width: 2px;"/>
  </g>
  <g id="forme">
    <polyline points="25 430.44 25 440.27 715 440.27 715 430.24" style="fill: none; stroke: #000; stroke-linecap: round; stroke-linejoin: round; stroke-width: 2px;"/>
    <polyline points="802 430.44 802 440.27 975 440.27 975 430.24" style="fill: none; stroke: #000; stroke-linecap: round; stroke-linejoin: round; stroke-width: 2px;"/>
    <g>
      <path d="M562.97,33.38v-7.27h4.9v1.27h-3.36v1.73h3.11v1.27h-3.11v1.74h3.38v1.27h-4.92Z" style="fill: #000; stroke-width: 0px;"/>
      <path d="M573.04,28.2c-.03-.29-.15-.51-.37-.67-.22-.16-.51-.24-.88-.24-.25,0-.46.03-.64.1s-.31.17-.4.29-.14.26-.14.42c0,.13.02.24.08.34.06.1.14.18.25.25s.23.13.37.18.29.09.45.13l.65.16c.32.07.61.17.87.28.26.12.5.26.69.44.19.17.35.38.45.61s.16.5.17.81c0,.45-.12.83-.34,1.16-.22.33-.55.58-.97.76-.42.18-.93.27-1.52.27s-1.1-.09-1.53-.27c-.43-.18-.77-.45-1.02-.8-.24-.35-.37-.79-.38-1.32h1.49c.02.24.09.45.21.61.12.16.29.28.5.37s.45.12.71.12.49-.04.68-.11c.19-.08.34-.18.45-.32.11-.13.16-.29.16-.47,0-.16-.05-.3-.14-.41-.1-.11-.24-.21-.42-.28s-.41-.15-.67-.21l-.79-.2c-.61-.15-1.1-.38-1.45-.7-.35-.32-.53-.74-.53-1.28,0-.44.12-.83.35-1.15.24-.33.57-.59.98-.77s.89-.28,1.42-.28,1.01.09,1.42.28c.4.18.72.44.94.77s.34.71.35,1.14h-1.47Z" style="fill: #000; stroke-width: 0px;"/>
      <path d="M576.9,33.38h-1.65l2.51-7.27h1.98l2.51,7.27h-1.65l-1.82-5.61h-.06l-1.83,5.61ZM576.79,30.52h3.89v1.2h-3.89v-1.2Z" style="fill: #000; stroke-width: 0px;"/>
      <path d="M587.94,28.46c-.05-.17-.12-.33-.21-.46s-.2-.25-.33-.34c-.13-.09-.28-.17-.44-.21-.17-.05-.35-.07-.55-.07-.37,0-.7.09-.98.28-.28.18-.5.45-.66.8s-.23.78-.23,1.29.08.94.23,1.29c.15.36.37.63.65.81.28.19.61.28,1,.28.35,0,.65-.06.89-.19.25-.12.44-.3.57-.53.13-.23.2-.5.2-.81l.31.05h-1.88v-1.16h3.04v.92c0,.64-.14,1.19-.41,1.65-.27.46-.64.81-1.12,1.06-.47.25-1.02.37-1.63.37-.68,0-1.28-.15-1.8-.45-.52-.3-.92-.73-1.21-1.29-.29-.56-.43-1.22-.43-1.99,0-.59.09-1.12.26-1.58.17-.46.41-.86.72-1.18.31-.32.67-.57,1.08-.74s.86-.25,1.34-.25c.41,0,.8.06,1.15.18.36.12.67.29.95.51.28.22.5.48.68.78.17.3.29.63.34.99h-1.56Z" style="fill: #000; stroke-width: 0px;"/>
      <path d="M597.41,29.74c0,.79-.15,1.47-.45,2.02-.3.56-.71.98-1.22,1.27-.51.29-1.09.44-1.73.44s-1.23-.15-1.74-.44-.92-.72-1.22-1.27c-.3-.56-.45-1.23-.45-2.02s.15-1.47.45-2.02c.3-.56.7-.98,1.22-1.27s1.09-.44,1.74-.44,1.22.15,1.73.44.92.72,1.22,1.27c.3.56.45,1.23.45,2.02ZM595.85,29.74c0-.51-.08-.95-.23-1.3s-.37-.62-.64-.8c-.28-.18-.6-.27-.97-.27s-.7.09-.97.27c-.28.18-.49.45-.64.8-.15.35-.23.79-.23,1.3s.08.95.23,1.3c.15.35.37.62.64.8.28.18.6.27.97.27s.7-.09.97-.27c.28-.18.49-.45.64-.8.15-.35.23-.79.23-1.3Z" style="fill: #000; stroke-width: 0px;"/>
      <path d="M604.63,26.1v7.27h-1.33l-3.16-4.58h-.05v4.58h-1.54v-7.27h1.35l3.14,4.57h.06v-4.57h1.53Z" style="fill: #000; stroke-width: 0px;"/>
      <path d="M612.58,29.74c0,.79-.15,1.47-.45,2.02-.3.56-.71.98-1.22,1.27-.51.29-1.09.44-1.73.44s-1.23-.15-1.74-.44-.92-.72-1.22-1.27c-.3-.56-.45-1.23-.45-2.02s.15-1.47.45-2.02c.3-.56.7-.98,1.22-1.27s1.09-.44,1.74-.44,1.22.15,1.73.44.92.72,1.22,1.27c.3.56.45,1.23.45,2.02ZM611.02,29.74c0-.51-.08-.95-.23-1.3s-.37-.62-.64-.8c-.28-.18-.6-.27-.97-.27s-.7.09-.97.27c-.28.18-.49.45-.64.8-.15.35-.23.79-.23,1.3s.08.95.23,1.3c.15.35.37.62.64.8.28.18.6.27.97.27s.7-.09.97-.27c.28-.18.49-.45.64-.8.15-.35.23-.79.23-1.3Z" style="fill: #000; stroke-width: 0px;"/>
      <path d="M616.04,33.38v-7.27h2.87c.55,0,1.02.1,1.41.29.39.2.69.47.89.83s.31.77.31,1.26-.1.9-.31,1.24c-.21.35-.51.61-.9.8s-.87.28-1.43.28h-1.92v-1.24h1.67c.29,0,.54-.04.73-.12s.34-.2.43-.36c.1-.16.14-.36.14-.6s-.05-.45-.14-.61c-.1-.17-.24-.29-.44-.38-.2-.09-.44-.13-.74-.13h-1.04v6.02h-1.54ZM619.96,30.07l1.81,3.31h-1.7l-1.77-3.31h1.66Z" style="fill: #000; stroke-width: 0px;"/>
      <path d="M622.6,33.38v-7.27h4.9v1.27h-3.36v1.73h3.11v1.27h-3.11v1.74h3.38v1.27h-4.92Z" style="fill: #000; stroke-width: 0px;"/>
      <path d="M633.55,28.46c-.05-.17-.12-.33-.21-.46s-.2-.25-.33-.34c-.13-.09-.28-.17-.44-.21-.17-.05-.35-.07-.55-.07-.37,0-.7.09-.98.28-.28.18-.5.45-.66.8s-.23.78-.23,1.29.08.94.23,1.29c.15.36.37.63.65.81.28.19.61.28,1,.28.35,0,.65-.06.89-.19.25-.12.44-.3.57-.53.13-.23.2-.5.2-.81l.31.05h-1.88v-1.16h3.04v.92c0,.64-.14,1.19-.41,1.65-.27.46-.64.81-1.12,1.06-.47.25-1.02.37-1.63.37-.68,0-1.28-.15-1.8-.45-.52-.3-.92-.73-1.21-1.29-.29-.56-.43-1.22-.43-1.99,0-.59.09-1.12.26-1.58.17-.46.41-.86.72-1.18.31-.32.67-.57,1.08-.74s.86-.25,1.34-.25c.41,0,.8.06,1.15.18.36.12.67.29.95.51.28.22.5.48.68.78.17.3.29.63.34.99h-1.56Z" style="fill: #000; stroke-width: 0px;"/>
      <path d="M643.01,29.74c0,.79-.15,1.47-.45,2.02-.3.56-.71.98-1.22,1.27-.51.29-1.09.44-1.73.44s-1.23-.15-1.74-.44-.92-.72-1.22-1.27c-.3-.56-.45-1.23-.45-2.02s.15-1.47.45-2.02c.3-.56.7-.98,1.22-1.27s1.09-.44,1.74-.44,1.22.15,1.73.44.92.72,1.22,1.27c.3.56.45,1.23.45,2.02ZM641.46,29.74c0-.51-.08-.95-.23-1.3s-.37-.62-.64-.8c-.28-.18-.6-.27-.97-.27s-.7.09-.97.27c-.28.18-.49.45-.64.8-.15.35-.23.79-.23,1.3s.08.95.23,1.3c.15.35.37.62.64.8.28.18.6.27.97.27s.7-.09.97-.27c.28-.18.49-.45.64-.8.15-.35.23-.79.23-1.3Z" style="fill: #000; stroke-width: 0px;"/>
      <path d="M644.15,33.38v-7.27h1.54v6.01h3.12v1.27h-4.66Z" style="fill: #000; stroke-width: 0px;"/>
      <path d="M651.08,33.38h-1.65l2.51-7.27h1.98l2.51,7.27h-1.65l-1.82-5.61h-.06l-1.83,5.61ZM650.97,30.52h3.89v1.2h-3.89v-1.2Z" style="fill: #000; stroke-width: 0px;"/>
      <path d="M657.3,33.38v-7.27h2.87c.55,0,1.02.1,1.41.29s.69.47.89.83.31.77.31,1.26-.1.9-.31,1.24c-.21.35-.51.61-.9.8-.39.18-.87.28-1.43.28h-1.92v-1.24h1.67c.29,0,.54-.04.73-.12s.34-.2.43-.36c.1-.16.14-.36.14-.6s-.05-.45-.14-.61c-.1-.17-.24-.29-.44-.38-.2-.09-.44-.13-.74-.13h-1.04v6.02h-1.54ZM661.23,30.07l1.81,3.31h-1.7l-1.77-3.31h1.66Z" style="fill: #000; stroke-width: 0px;"/>
      <path d="M663.87,33.38v-7.27h4.9v1.27h-3.36v1.73h3.11v1.27h-3.11v1.74h3.38v1.27h-4.92Z" style="fill: #000; stroke-width: 0px;"/>
    </g>
    <g>
      <path d="M347.64,29.51c0,.79-.15,1.47-.45,2.02-.3.56-.71.98-1.22,1.27-.52.29-1.09.44-1.73.44s-1.23-.15-1.74-.44c-.51-.29-.92-.72-1.22-1.27s-.45-1.23-.45-2.02.15-1.47.45-2.02c.3-.56.7-.98,1.22-1.27.51-.29,1.09-.44,1.74-.44s1.22.15,1.73.44.92.72,1.22,1.27c.3.56.45,1.23.45,2.02ZM346.09,29.51c0-.51-.08-.95-.23-1.3s-.37-.62-.64-.8c-.28-.18-.6-.27-.97-.27s-.7.09-.97.27c-.28.18-.49.45-.64.8-.15.35-.23.79-.23,1.3s.08.95.23,1.3c.15.35.37.62.64.8.28.18.6.27.97.27s.7-.09.97-.27c.28-.18.49-.45.64-.8.15-.35.23-.79.23-1.3ZM343.71,30.61h1.31l.66.85.65.75,1.22,1.53h-1.43l-.84-1.03-.43-.61-1.13-1.48Z" style="fill: #000; stroke-width: 0px;"/>
      <path d="M353.28,25.87h1.54v4.72c0,.53-.13.99-.38,1.39-.25.4-.6.71-1.06.93s-.98.33-1.58.33-1.13-.11-1.58-.33-.8-.53-1.05-.93c-.25-.4-.38-.86-.38-1.39v-4.72h1.54v4.59c0,.28.06.52.18.74s.29.38.52.51c.22.12.48.18.78.18s.56-.06.78-.18c.22-.12.39-.29.52-.51s.18-.46.18-.74v-4.59Z" style="fill: #000; stroke-width: 0px;"/>
      <path d="M357.34,33.14h-1.65l2.51-7.27h1.98l2.51,7.27h-1.65l-1.82-5.61h-.06l-1.83,5.61ZM357.23,30.28h3.89v1.2h-3.89v-1.2Z" style="fill: #000; stroke-width: 0px;"/>
      <path d="M366.14,33.14h-2.58v-7.27h2.6c.73,0,1.36.15,1.89.44s.93.71,1.22,1.25c.29.54.43,1.19.43,1.95s-.14,1.41-.43,1.95c-.29.54-.69.96-1.23,1.25-.53.29-1.17.44-1.9.44ZM365.1,31.82h.98c.45,0,.84-.08,1.15-.24.31-.16.55-.41.7-.76.16-.34.24-.78.24-1.33s-.08-.98-.24-1.32c-.16-.34-.39-.59-.7-.75-.31-.16-.69-.24-1.15-.24h-.98v4.64Z" style="fill: #000; stroke-width: 0px;"/>
      <path d="M370.83,33.14v-7.27h2.87c.55,0,1.02.1,1.41.29s.69.47.89.83.31.77.31,1.26-.1.9-.31,1.24c-.21.35-.51.61-.9.8s-.87.28-1.43.28h-1.92v-1.24h1.67c.29,0,.54-.04.73-.12s.34-.2.43-.36c.1-.16.14-.36.14-.6s-.05-.45-.14-.61c-.1-.17-.24-.29-.44-.38-.2-.09-.44-.13-.74-.13h-1.04v6.02h-1.54ZM374.76,29.83l1.81,3.31h-1.7l-1.77-3.31h1.66Z" style="fill: #000; stroke-width: 0px;"/>
      <path d="M378.65,33.14h-1.65l2.51-7.27h1.98l2.51,7.27h-1.65l-1.82-5.61h-.06l-1.83,5.61ZM378.55,30.28h3.89v1.2h-3.89v-1.2Z" style="fill: #000; stroke-width: 0px;"/>
      <path d="M384.6,27.14v-1.27h5.97v1.27h-2.23v6h-1.52v-6h-2.23Z" style="fill: #000; stroke-width: 0px;"/>
      <path d="M398.24,29.51c0,.79-.15,1.47-.45,2.02-.3.56-.71.98-1.22,1.27-.51.29-1.09.44-1.73.44s-1.23-.15-1.74-.44-.92-.72-1.22-1.27c-.3-.56-.45-1.23-.45-2.02s.15-1.47.45-2.02c.3-.56.7-.98,1.22-1.27s1.09-.44,1.74-.44,1.22.15,1.73.44.92.72,1.22,1.27c.3.56.45,1.23.45,2.02ZM396.68,29.51c0-.51-.08-.95-.23-1.3s-.37-.62-.64-.8c-.28-.18-.6-.27-.97-.27s-.7.09-.97.27c-.28.18-.49.45-.64.8-.15.35-.23.79-.23,1.3s.08.95.23,1.3c.15.35.37.62.64.8.28.18.6.27.97.27s.7-.09.97-.27c.28-.18.49-.45.64-.8.15-.35.23-.79.23-1.3Z" style="fill: #000; stroke-width: 0px;"/>
    </g>
    <g>
      <path d="M60.04,27.21v-1.27h5.97v1.27h-2.23v6h-1.52v-6h-2.23Z" style="fill: #000; stroke-width: 0px;"/>
      <path d="M67,33.21v-7.27h2.87c.55,0,1.02.1,1.41.29.39.2.69.47.89.83s.31.77.31,1.26-.1.9-.31,1.24-.51.61-.9.8-.87.28-1.43.28h-1.92v-1.24h1.67c.29,0,.54-.04.73-.12s.34-.2.44-.36.14-.36.14-.6-.05-.45-.14-.61-.24-.29-.44-.38c-.2-.09-.44-.13-.74-.13h-1.04v6.02h-1.54ZM70.93,29.9l1.81,3.31h-1.7l-1.77-3.31h1.66Z" style="fill: #000; stroke-width: 0px;"/>
      <path d="M75.1,25.94v7.27h-1.54v-7.27h1.54Z" style="fill: #000; stroke-width: 0px;"/>
      <path d="M77.62,33.21h-1.65l2.51-7.27h1.98l2.51,7.27h-1.65l-1.82-5.61h-.06l-1.83,5.61ZM77.52,30.35h3.89v1.2h-3.89v-1.2Z" style="fill: #000; stroke-width: 0px;"/>
      <path d="M89.93,25.94v7.27h-1.33l-3.16-4.58h-.05v4.58h-1.54v-7.27h1.35l3.14,4.57h.06v-4.57h1.53Z" style="fill: #000; stroke-width: 0px;"/>
      <path d="M96.02,28.29c-.05-.17-.12-.33-.21-.46s-.2-.25-.33-.34c-.13-.09-.28-.17-.44-.21s-.35-.07-.54-.07c-.37,0-.7.09-.98.28-.28.18-.5.45-.66.8s-.23.78-.23,1.29.08.94.23,1.29c.15.36.37.63.65.81.28.19.61.28,1,.28.35,0,.65-.06.89-.19.25-.12.44-.3.57-.53.13-.23.2-.5.2-.81l.31.05h-1.88v-1.16h3.04v.92c0,.64-.13,1.19-.4,1.65-.27.46-.64.81-1.12,1.06-.47.25-1.02.37-1.63.37-.68,0-1.28-.15-1.8-.45-.52-.3-.92-.73-1.21-1.29-.29-.56-.43-1.22-.43-1.99,0-.59.09-1.12.26-1.58.17-.46.41-.86.72-1.18.31-.32.67-.57,1.08-.74.41-.17.86-.25,1.34-.25.41,0,.8.06,1.15.18.36.12.67.29.95.51.28.22.5.48.68.78.18.3.29.63.34.99h-1.56Z" style="fill: #000; stroke-width: 0px;"/>
      <path d="M105.49,29.57c0,.79-.15,1.47-.45,2.02-.3.56-.71.98-1.22,1.27-.52.29-1.09.44-1.73.44s-1.23-.15-1.74-.44c-.51-.29-.92-.72-1.22-1.27s-.45-1.23-.45-2.02.15-1.47.45-2.02c.3-.56.7-.98,1.22-1.27.51-.29,1.09-.44,1.74-.44s1.22.15,1.73.44.92.72,1.22,1.27c.3.56.45,1.23.45,2.02ZM103.93,29.57c0-.51-.08-.95-.23-1.3s-.37-.62-.64-.8c-.28-.18-.6-.27-.97-.27s-.7.09-.97.27c-.28.18-.49.45-.64.8-.15.35-.23.79-.23,1.3s.08.95.23,1.3c.15.35.37.62.64.8.28.18.6.27.97.27s.7-.09.97-.27c.28-.18.49-.45.64-.8.15-.35.23-.79.23-1.3Z" style="fill: #000; stroke-width: 0px;"/>
      <path d="M106.63,33.21v-7.27h1.54v6.01h3.12v1.27h-4.66Z" style="fill: #000; stroke-width: 0px;"/>
      <path d="M118.98,29.57c0,.79-.15,1.47-.45,2.02-.3.56-.71.98-1.22,1.27-.52.29-1.09.44-1.73.44s-1.23-.15-1.74-.44c-.51-.29-.92-.72-1.22-1.27s-.45-1.23-.45-2.02.15-1.47.45-2.02c.3-.56.7-.98,1.22-1.27.51-.29,1.09-.44,1.74-.44s1.22.15,1.73.44.92.72,1.22,1.27c.3.56.45,1.23.45,2.02ZM117.42,29.57c0-.51-.08-.95-.23-1.3s-.37-.62-.64-.8c-.28-.18-.6-.27-.97-.27s-.7.09-.97.27c-.28.18-.49.45-.64.8-.15.35-.23.79-.23,1.3s.08.95.23,1.3c.15.35.37.62.64.8.28.18.6.27.97.27s.7-.09.97-.27c.28-.18.49-.45.64-.8.15-.35.23-.79.23-1.3Z" style="fill: #000; stroke-width: 0px;"/>
      <path d="M122.44,33.21v-7.27h4.9v1.27h-3.36v1.73h3.11v1.27h-3.11v1.74h3.38v1.27h-4.91Z" style="fill: #000; stroke-width: 0px;"/>
      <path d="M135.25,29.57c0,.79-.15,1.47-.45,2.02-.3.56-.71.98-1.22,1.27-.52.29-1.09.44-1.73.44s-1.23-.15-1.74-.44c-.51-.29-.92-.72-1.22-1.27s-.45-1.23-.45-2.02.15-1.47.45-2.02c.3-.56.7-.98,1.22-1.27.51-.29,1.09-.44,1.74-.44s1.22.15,1.73.44.92.72,1.22,1.27c.3.56.45,1.23.45,2.02ZM133.69,29.57c0-.51-.08-.95-.23-1.3s-.37-.62-.64-.8c-.28-.18-.6-.27-.97-.27s-.7.09-.97.27c-.28.18-.49.45-.64.8-.15.35-.23.79-.23,1.3s.08.95.23,1.3c.15.35.37.62.64.8.28.18.6.27.97.27s.7-.09.97-.27c.28-.18.49-.45.64-.8.15-.35.23-.79.23-1.3ZM131.31,30.68h1.31l.66.85.65.75,1.22,1.53h-1.43l-.84-1.03-.43-.61-1.13-1.48Z" style="fill: #000; stroke-width: 0px;"/>
      <path d="M140.88,25.94h1.54v4.72c0,.53-.13.99-.38,1.39-.25.4-.6.71-1.06.93s-.98.33-1.58.33-1.13-.11-1.58-.33-.8-.53-1.05-.93c-.25-.4-.38-.86-.38-1.39v-4.72h1.54v4.59c0,.28.06.52.18.74s.29.38.52.51c.22.12.48.18.78.18s.56-.06.78-.18c.22-.12.39-.29.52-.51s.18-.46.18-.74v-4.59Z" style="fill: #000; stroke-width: 0px;"/>
      <path d="M145.22,25.94v7.27h-1.54v-7.27h1.54Z" style="fill: #000; stroke-width: 0px;"/>
      <path d="M146.49,33.21v-7.27h1.54v6.01h3.12v1.27h-4.66Z" style="fill: #000; stroke-width: 0px;"/>
      <path d="M153.42,33.21h-1.65l2.51-7.27h1.98l2.51,7.27h-1.65l-1.82-5.61h-.06l-1.83,5.61ZM153.32,30.35h3.89v1.2h-3.89v-1.2Z" style="fill: #000; stroke-width: 0px;"/>
      <path d="M159.37,27.21v-1.27h5.97v1.27h-2.23v6h-1.52v-6h-2.23Z" style="fill: #000; stroke-width: 0px;"/>
      <path d="M166.33,33.21v-7.27h4.9v1.27h-3.36v1.73h3.11v1.27h-3.11v1.74h3.38v1.27h-4.91Z" style="fill: #000; stroke-width: 0px;"/>
      <path d="M172.45,33.21v-7.27h2.87c.55,0,1.02.1,1.41.29.39.2.69.47.89.83s.31.77.31,1.26-.1.9-.31,1.24-.51.61-.9.8-.87.28-1.43.28h-1.92v-1.24h1.67c.29,0,.54-.04.73-.12s.34-.2.44-.36.14-.36.14-.6-.05-.45-.14-.61-.24-.29-.44-.38c-.2-.09-.44-.13-.74-.13h-1.04v6.02h-1.54ZM176.38,29.9l1.81,3.31h-1.7l-1.77-3.31h1.66Z" style="fill: #000; stroke-width: 0px;"/>
      <path d="M185.7,29.57c0,.79-.15,1.47-.45,2.02-.3.56-.71.98-1.22,1.27-.52.29-1.09.44-1.73.44s-1.23-.15-1.74-.44c-.51-.29-.92-.72-1.22-1.27s-.45-1.23-.45-2.02.15-1.47.45-2.02c.3-.56.7-.98,1.22-1.27.51-.29,1.09-.44,1.74-.44s1.22.15,1.73.44.92.72,1.22,1.27c.3.56.45,1.23.45,2.02ZM184.14,29.57c0-.51-.08-.95-.23-1.3s-.37-.62-.64-.8c-.28-.18-.6-.27-.97-.27s-.7.09-.97.27c-.28.18-.49.45-.64.8-.15.35-.23.79-.23,1.3s.08.95.23,1.3c.15.35.37.62.64.8.28.18.6.27.97.27s.7-.09.97-.27c.28-.18.49-.45.64-.8.15-.35.23-.79.23-1.3Z" style="fill: #000; stroke-width: 0px;"/>
    </g>
    <g>
      <path d="M871.39,33.23v-7.27h2.87c.55,0,1.02.1,1.41.31s.68.5.89.87.31.8.31,1.28-.1.91-.31,1.28c-.21.37-.51.66-.9.86s-.87.31-1.43.31h-1.83v-1.23h1.58c.3,0,.54-.05.73-.15.19-.1.34-.25.43-.43.1-.18.14-.4.14-.63s-.05-.45-.14-.63c-.1-.18-.24-.32-.43-.42s-.44-.15-.74-.15h-1.04v6.02h-1.54Z" style="fill: #000; stroke-width: 0px;"/>
      <path d="M877.87,33.23v-7.27h4.9v1.27h-3.36v1.73h3.11v1.27h-3.11v1.74h3.38v1.27h-4.92Z" style="fill: #000; stroke-width: 0px;"/>
      <path d="M890.08,25.95v7.27h-1.33l-3.16-4.58h-.05v4.58h-1.54v-7.27h1.35l3.14,4.57h.06v-4.57h1.53Z" style="fill: #000; stroke-width: 0px;"/>
      <path d="M891.07,27.22v-1.27h5.97v1.27h-2.23v6h-1.52v-6h-2.23Z" style="fill: #000; stroke-width: 0px;"/>
      <path d="M899.28,33.23h-1.65l2.51-7.27h1.98l2.51,7.27h-1.65l-1.82-5.61h-.06l-1.83,5.61ZM899.18,30.37h3.89v1.2h-3.89v-1.2Z" style="fill: #000; stroke-width: 0px;"/>
      <path d="M910.33,28.3c-.05-.17-.12-.33-.21-.46s-.2-.25-.33-.34c-.13-.09-.28-.17-.44-.21-.17-.05-.35-.07-.55-.07-.37,0-.7.09-.98.28-.28.18-.5.45-.66.8s-.23.78-.23,1.29.08.94.23,1.29c.15.36.37.63.65.81.28.19.61.28,1,.28.35,0,.65-.06.89-.19.25-.12.44-.3.57-.53.13-.23.2-.5.2-.81l.31.05h-1.88v-1.16h3.04v.92c0,.64-.14,1.19-.41,1.65-.27.46-.64.81-1.12,1.06-.47.25-1.02.37-1.63.37-.68,0-1.28-.15-1.8-.45-.52-.3-.92-.73-1.21-1.29-.29-.56-.43-1.22-.43-1.99,0-.59.09-1.12.26-1.58.17-.46.41-.86.72-1.18.31-.32.67-.57,1.08-.74s.86-.25,1.34-.25c.41,0,.8.06,1.15.18.36.12.67.29.95.51.28.22.5.48.68.78.17.3.29.63.34.99h-1.56Z" style="fill: #000; stroke-width: 0px;"/>
      <path d="M919.8,29.59c0,.79-.15,1.47-.45,2.02-.3.56-.71.98-1.22,1.27-.51.29-1.09.44-1.73.44s-1.23-.15-1.74-.44-.92-.72-1.22-1.27c-.3-.56-.45-1.23-.45-2.02s.15-1.47.45-2.02c.3-.56.7-.98,1.22-1.27s1.09-.44,1.74-.44,1.22.15,1.73.44.92.72,1.22,1.27c.3.56.45,1.23.45,2.02ZM918.24,29.59c0-.51-.08-.95-.23-1.3s-.37-.62-.64-.8c-.28-.18-.6-.27-.97-.27s-.7.09-.97.27c-.28.18-.49.45-.64.8-.15.35-.23.79-.23,1.3s.08.95.23,1.3c.15.35.37.62.64.8.28.18.6.27.97.27s.7-.09.97-.27c.28-.18.49-.45.64-.8.15-.35.23-.79.23-1.3Z" style="fill: #000; stroke-width: 0px;"/>
      <path d="M927.02,25.95v7.27h-1.33l-3.16-4.58h-.05v4.58h-1.54v-7.27h1.35l3.14,4.57h.06v-4.57h1.53Z" style="fill: #000; stroke-width: 0px;"/>
      <path d="M934.97,29.59c0,.79-.15,1.47-.45,2.02-.3.56-.71.98-1.22,1.27-.51.29-1.09.44-1.73.44s-1.23-.15-1.74-.44-.92-.72-1.22-1.27c-.3-.56-.45-1.23-.45-2.02s.15-1.47.45-2.02c.3-.56.7-.98,1.22-1.27s1.09-.44,1.74-.44,1.22.15,1.73.44.92.72,1.22,1.27c.3.56.45,1.23.45,2.02ZM933.41,29.59c0-.51-.08-.95-.23-1.3s-.37-.62-.64-.8c-.28-.18-.6-.27-.97-.27s-.7.09-.97.27c-.28.18-.49.45-.64.8-.15.35-.23.79-.23,1.3s.08.95.23,1.3c.15.35.37.62.64.8.28.18.6.27.97.27s.7-.09.97-.27c.28-.18.49-.45.64-.8.15-.35.23-.79.23-1.3Z" style="fill: #000; stroke-width: 0px;"/>
    </g>
  </g>
  <g id="scritte_originali" data-name="scritte originali" style="display: none;">
    <g>
      <path d="M562.97,33.38v-7.27h4.9v1.27h-3.36v1.73h3.11v1.27h-3.11v1.74h3.38v1.27h-4.92Z" style="fill: #000; stroke-width: 0px;"/>
      <path d="M573.04,28.2c-.03-.29-.15-.51-.37-.67-.22-.16-.51-.24-.88-.24-.25,0-.46.03-.64.1s-.31.17-.4.29-.14.26-.14.42c0,.13.02.24.08.34.06.1.14.18.25.25s.23.13.37.18.29.09.45.13l.65.16c.32.07.61.17.87.28.26.12.5.26.69.44.19.17.35.38.45.61s.16.5.17.81c0,.45-.12.83-.34,1.16-.22.33-.55.58-.97.76-.42.18-.93.27-1.52.27s-1.1-.09-1.53-.27c-.43-.18-.77-.45-1.02-.8-.24-.35-.37-.79-.38-1.32h1.49c.02.24.09.45.21.61.12.16.29.28.5.37s.45.12.71.12.49-.04.68-.11c.19-.08.34-.18.45-.32.11-.13.16-.29.16-.47,0-.16-.05-.3-.14-.41-.1-.11-.24-.21-.42-.28s-.41-.15-.67-.21l-.79-.2c-.61-.15-1.1-.38-1.45-.7-.35-.32-.53-.74-.53-1.28,0-.44.12-.83.35-1.15.24-.33.57-.59.98-.77s.89-.28,1.42-.28,1.01.09,1.42.28c.4.18.72.44.94.77s.34.71.35,1.14h-1.47Z" style="fill: #000; stroke-width: 0px;"/>
      <path d="M576.9,33.38h-1.65l2.51-7.27h1.98l2.51,7.27h-1.65l-1.82-5.61h-.06l-1.83,5.61ZM576.79,30.52h3.89v1.2h-3.89v-1.2Z" style="fill: #000; stroke-width: 0px;"/>
      <path d="M587.94,28.46c-.05-.17-.12-.33-.21-.46s-.2-.25-.33-.34c-.13-.09-.28-.17-.44-.21-.17-.05-.35-.07-.55-.07-.37,0-.7.09-.98.28-.28.18-.5.45-.66.8s-.23.78-.23,1.29.08.94.23,1.29c.15.36.37.63.65.81.28.19.61.28,1,.28.35,0,.65-.06.89-.19.25-.12.44-.3.57-.53.13-.23.2-.5.2-.81l.31.05h-1.88v-1.16h3.04v.92c0,.64-.14,1.19-.41,1.65-.27.46-.64.81-1.12,1.06-.47.25-1.02.37-1.63.37-.68,0-1.28-.15-1.8-.45-.52-.3-.92-.73-1.21-1.29-.29-.56-.43-1.22-.43-1.99,0-.59.09-1.12.26-1.58.17-.46.41-.86.72-1.18.31-.32.67-.57,1.08-.74s.86-.25,1.34-.25c.41,0,.8.06,1.15.18.36.12.67.29.95.51.28.22.5.48.68.78.17.3.29.63.34.99h-1.56Z" style="fill: #000; stroke-width: 0px;"/>
      <path d="M597.41,29.74c0,.79-.15,1.47-.45,2.02-.3.56-.71.98-1.22,1.27-.51.29-1.09.44-1.73.44s-1.23-.15-1.74-.44-.92-.72-1.22-1.27c-.3-.56-.45-1.23-.45-2.02s.15-1.47.45-2.02c.3-.56.7-.98,1.22-1.27s1.09-.44,1.74-.44,1.22.15,1.73.44.92.72,1.22,1.27c.3.56.45,1.23.45,2.02ZM595.85,29.74c0-.51-.08-.95-.23-1.3s-.37-.62-.64-.8c-.28-.18-.6-.27-.97-.27s-.7.09-.97.27c-.28.18-.49.45-.64.8-.15.35-.23.79-.23,1.3s.08.95.23,1.3c.15.35.37.62.64.8.28.18.6.27.97.27s.7-.09.97-.27c.28-.18.49-.45.64-.8.15-.35.23-.79.23-1.3Z" style="fill: #000; stroke-width: 0px;"/>
      <path d="M604.63,26.1v7.27h-1.33l-3.16-4.58h-.05v4.58h-1.54v-7.27h1.35l3.14,4.57h.06v-4.57h1.53Z" style="fill: #000; stroke-width: 0px;"/>
      <path d="M612.58,29.74c0,.79-.15,1.47-.45,2.02-.3.56-.71.98-1.22,1.27-.51.29-1.09.44-1.73.44s-1.23-.15-1.74-.44-.92-.72-1.22-1.27c-.3-.56-.45-1.23-.45-2.02s.15-1.47.45-2.02c.3-.56.7-.98,1.22-1.27s1.09-.44,1.74-.44,1.22.15,1.73.44.92.72,1.22,1.27c.3.56.45,1.23.45,2.02ZM611.02,29.74c0-.51-.08-.95-.23-1.3s-.37-.62-.64-.8c-.28-.18-.6-.27-.97-.27s-.7.09-.97.27c-.28.18-.49.45-.64.8-.15.35-.23.79-.23,1.3s.08.95.23,1.3c.15.35.37.62.64.8.28.18.6.27.97.27s.7-.09.97-.27c.28-.18.49-.45.64-.8.15-.35.23-.79.23-1.3Z" style="fill: #000; stroke-width: 0px;"/>
      <path d="M616.04,33.38v-7.27h2.87c.55,0,1.02.1,1.41.29s.69.47.89.83.31.77.31,1.26-.1.9-.31,1.24c-.21.35-.51.61-.9.8s-.87.28-1.43.28h-1.92v-1.24h1.67c.29,0,.54-.04.73-.12s.34-.2.43-.36c.1-.16.14-.36.14-.6s-.05-.45-.14-.61c-.1-.17-.24-.29-.44-.38-.2-.09-.44-.13-.74-.13h-1.04v6.02h-1.54ZM619.96,30.07l1.81,3.31h-1.7l-1.77-3.31h1.66Z" style="fill: #000; stroke-width: 0px;"/>
      <path d="M622.6,33.38v-7.27h4.9v1.27h-3.36v1.73h3.11v1.27h-3.11v1.74h3.38v1.27h-4.92Z" style="fill: #000; stroke-width: 0px;"/>
      <path d="M633.55,28.46c-.05-.17-.12-.33-.21-.46s-.2-.25-.33-.34c-.13-.09-.28-.17-.44-.21-.17-.05-.35-.07-.55-.07-.37,0-.7.09-.98.28-.28.18-.5.45-.66.8s-.23.78-.23,1.29.08.94.23,1.29c.15.36.37.63.65.81.28.19.61.28,1,.28.35,0,.65-.06.89-.19.25-.12.44-.3.57-.53.13-.23.2-.5.2-.81l.31.05h-1.88v-1.16h3.04v.92c0,.64-.14,1.19-.41,1.65-.27.46-.64.81-1.12,1.06-.47.25-1.02.37-1.63.37-.68,0-1.28-.15-1.8-.45-.52-.3-.92-.73-1.21-1.29-.29-.56-.43-1.22-.43-1.99,0-.59.09-1.12.26-1.58.17-.46.41-.86.72-1.18.31-.32.67-.57,1.08-.74s.86-.25,1.34-.25c.41,0,.8.06,1.15.18.36.12.67.29.95.51.28.22.5.48.68.78.17.3.29.63.34.99h-1.56Z" style="fill: #000; stroke-width: 0px;"/>
      <path d="M643.01,29.74c0,.79-.15,1.47-.45,2.02-.3.56-.71.98-1.22,1.27-.51.29-1.09.44-1.73.44s-1.23-.15-1.74-.44-.92-.72-1.22-1.27c-.3-.56-.45-1.23-.45-2.02s.15-1.47.45-2.02c.3-.56.7-.98,1.22-1.27s1.09-.44,1.74-.44,1.22.15,1.73.44.92.72,1.22,1.27c.3.56.45,1.23.45,2.02ZM641.46,29.74c0-.51-.08-.95-.23-1.3s-.37-.62-.64-.8c-.28-.18-.6-.27-.97-.27s-.7.09-.97.27c-.28.18-.49.45-.64.8-.15.35-.23.79-.23,1.3s.08.95.23,1.3c.15.35.37.62.64.8.28.18.6.27.97.27s.7-.09.97-.27c.28-.18.49-.45.64-.8.15-.35.23-.79.23-1.3Z" style="fill: #000; stroke-width: 0px;"/>
      <path d="M644.15,33.38v-7.27h1.54v6.01h3.12v1.27h-4.66Z" style="fill: #000; stroke-width: 0px;"/>
      <path d="M651.08,33.38h-1.65l2.51-7.27h1.98l2.51,7.27h-1.65l-1.82-5.61h-.06l-1.83,5.61ZM650.97,30.52h3.89v1.2h-3.89v-1.2Z" style="fill: #000; stroke-width: 0px;"/>
      <path d="M657.3,33.38v-7.27h2.87c.55,0,1.02.1,1.41.29s.69.47.89.83.31.77.31,1.26-.1.9-.31,1.24c-.21.35-.51.61-.9.8s-.87.28-1.43.28h-1.92v-1.24h1.67c.29,0,.54-.04.73-.12s.34-.2.43-.36c.1-.16.14-.36.14-.6s-.05-.45-.14-.61c-.1-.17-.24-.29-.44-.38-.2-.09-.44-.13-.74-.13h-1.04v6.02h-1.54ZM661.23,30.07l1.81,3.31h-1.7l-1.77-3.31h1.66Z" style="fill: #000; stroke-width: 0px;"/>
      <path d="M663.87,33.38v-7.27h4.9v1.27h-3.36v1.73h3.11v1.27h-3.11v1.74h3.38v1.27h-4.92Z" style="fill: #000; stroke-width: 0px;"/>
    </g>
    <g>
      <path d="M347.64,29.51c0,.79-.15,1.47-.45,2.02-.3.56-.71.98-1.22,1.27-.52.29-1.09.44-1.73.44s-1.23-.15-1.74-.44c-.51-.29-.92-.72-1.22-1.27s-.45-1.23-.45-2.02.15-1.47.45-2.02c.3-.56.7-.98,1.22-1.27.51-.29,1.09-.44,1.74-.44s1.22.15,1.73.44.92.72,1.22,1.27c.3.56.45,1.23.45,2.02ZM346.09,29.51c0-.51-.08-.95-.23-1.3s-.37-.62-.64-.8c-.28-.18-.6-.27-.97-.27s-.7.09-.97.27c-.28.18-.49.45-.64.8-.15.35-.23.79-.23,1.3s.08.95.23,1.3c.15.35.37.62.64.8.28.18.6.27.97.27s.7-.09.97-.27c.28-.18.49-.45.64-.8.15-.35.23-.79.23-1.3ZM343.71,30.61h1.31l.66.85.65.75,1.22,1.53h-1.43l-.84-1.03-.43-.61-1.13-1.48Z" style="fill: #000; stroke-width: 0px;"/>
      <path d="M353.28,25.87h1.54v4.72c0,.53-.13.99-.38,1.39-.25.4-.6.71-1.06.93s-.98.33-1.58.33-1.13-.11-1.58-.33-.8-.53-1.05-.93c-.25-.4-.38-.86-.38-1.39v-4.72h1.54v4.59c0,.28.06.52.18.74s.29.38.52.51c.22.12.48.18.78.18s.56-.06.78-.18c.22-.12.39-.29.52-.51s.18-.46.18-.74v-4.59Z" style="fill: #000; stroke-width: 0px;"/>
      <path d="M357.34,33.14h-1.65l2.51-7.27h1.98l2.51,7.27h-1.65l-1.82-5.61h-.06l-1.83,5.61ZM357.23,30.28h3.89v1.2h-3.89v-1.2Z" style="fill: #000; stroke-width: 0px;"/>
      <path d="M366.14,33.14h-2.58v-7.27h2.6c.73,0,1.36.15,1.89.44s.93.71,1.22,1.25c.29.54.43,1.19.43,1.95s-.14,1.41-.43,1.95c-.29.54-.69.96-1.23,1.25-.53.29-1.17.44-1.9.44ZM365.1,31.82h.98c.45,0,.84-.08,1.15-.24.31-.16.55-.41.7-.76.16-.34.24-.78.24-1.33s-.08-.98-.24-1.32c-.16-.34-.39-.59-.7-.75-.31-.16-.69-.24-1.15-.24h-.98v4.64Z" style="fill: #000; stroke-width: 0px;"/>
      <path d="M370.83,33.14v-7.27h2.87c.55,0,1.02.1,1.41.29s.69.47.89.83.31.77.31,1.26-.1.9-.31,1.24c-.21.35-.51.61-.9.8s-.87.28-1.43.28h-1.92v-1.24h1.67c.29,0,.54-.04.73-.12s.34-.2.43-.36c.1-.16.14-.36.14-.6s-.05-.45-.14-.61c-.1-.17-.24-.29-.44-.38-.2-.09-.44-.13-.74-.13h-1.04v6.02h-1.54ZM374.76,29.83l1.81,3.31h-1.7l-1.77-3.31h1.66Z" style="fill: #000; stroke-width: 0px;"/>
      <path d="M378.65,33.14h-1.65l2.51-7.27h1.98l2.51,7.27h-1.65l-1.82-5.61h-.06l-1.83,5.61ZM378.55,30.28h3.89v1.2h-3.89v-1.2Z" style="fill: #000; stroke-width: 0px;"/>
      <path d="M384.6,27.14v-1.27h5.97v1.27h-2.23v6h-1.52v-6h-2.23Z" style="fill: #000; stroke-width: 0px;"/>
      <path d="M398.24,29.51c0,.79-.15,1.47-.45,2.02-.3.56-.71.98-1.22,1.27-.51.29-1.09.44-1.73.44s-1.23-.15-1.74-.44-.92-.72-1.22-1.27c-.3-.56-.45-1.23-.45-2.02s.15-1.47.45-2.02c.3-.56.7-.98,1.22-1.27s1.09-.44,1.74-.44,1.22.15,1.73.44.92.72,1.22,1.27c.3.56.45,1.23.45,2.02ZM396.68,29.51c0-.51-.08-.95-.23-1.3s-.37-.62-.64-.8c-.28-.18-.6-.27-.97-.27s-.7.09-.97.27c-.28.18-.49.45-.64.8-.15.35-.23.79-.23,1.3s.08.95.23,1.3c.15.35.37.62.64.8.28.18.6.27.97.27s.7-.09.97-.27c.28-.18.49-.45.64-.8.15-.35.23-.79.23-1.3Z" style="fill: #000; stroke-width: 0px;"/>
    </g>
    <g>
      <path d="M330.61,459.94v-1.52h7.17v1.52h-2.67v7.21h-1.82v-7.21h-2.67Z" style="fill: #000; stroke-width: 0px;"/>
      <path d="M339.99,467.25c-.28,0-.52-.1-.72-.3-.2-.2-.3-.44-.3-.72s.1-.52.3-.72c.2-.2.44-.3.72-.3s.51.1.72.3.31.44.31.72c0,.19-.05.36-.14.51s-.22.28-.37.37c-.15.09-.32.14-.51.14Z" style="fill: #000; stroke-width: 0px;"/>
      <path d="M344.9,467.14v-8.73h3.44c.66,0,1.22.12,1.69.35s.82.57,1.07.99.37.93.37,1.51-.12,1.08-.38,1.49-.61.74-1.08.96c-.47.22-1.04.33-1.72.33h-2.31v-1.48h2.01c.35,0,.65-.05.88-.14s.41-.24.52-.43.17-.43.17-.72-.06-.54-.17-.73-.29-.35-.52-.45-.53-.16-.88-.16h-1.24v7.22h-1.85ZM349.62,463.17l2.17,3.97h-2.04l-2.12-3.97h1.99Z" style="fill: #000; stroke-width: 0px;"/>
      <path d="M352.78,467.14v-8.73h5.88v1.52h-4.04v2.08h3.73v1.52h-3.73v2.08h4.05v1.52h-5.9Z" style="fill: #000; stroke-width: 0px;"/>
      <path d="M365.92,461.24c-.06-.21-.14-.39-.25-.55s-.24-.3-.39-.41-.33-.2-.53-.26c-.2-.06-.42-.09-.65-.09-.45,0-.84.11-1.17.33-.34.22-.6.54-.79.96s-.28.94-.28,1.54.09,1.12.28,1.55.45.75.78.97c.34.22.74.33,1.2.33.42,0,.77-.07,1.07-.22s.52-.36.68-.63.24-.59.24-.97l.38.06h-2.25v-1.39h3.65v1.1c0,.77-.16,1.43-.49,1.98s-.77.97-1.34,1.27c-.57.3-1.22.45-1.95.45-.82,0-1.54-.18-2.16-.54-.62-.36-1.1-.88-1.45-1.55s-.52-1.46-.52-2.38c0-.71.1-1.34.31-1.89.21-.56.5-1.03.87-1.41.37-.39.81-.68,1.3-.88.49-.2,1.03-.3,1.61-.3.49,0,.95.07,1.38.21.43.14.8.35,1.14.61.33.26.6.57.81.93.21.36.35.75.4,1.19h-1.88Z" style="fill: #000; stroke-width: 0px;"/>
      <path d="M377.28,462.78c0,.95-.18,1.76-.54,2.43s-.85,1.18-1.46,1.53c-.62.35-1.31.53-2.08.53s-1.47-.18-2.09-.53c-.62-.35-1.1-.86-1.46-1.53-.36-.67-.54-1.48-.54-2.43s.18-1.76.54-2.43c.36-.67.84-1.18,1.46-1.53.62-.35,1.31-.53,2.09-.53s1.46.18,2.08.53c.62.35,1.11.86,1.46,1.53.36.67.54,1.48.54,2.43ZM375.41,462.78c0-.62-.09-1.14-.27-1.56-.18-.42-.44-.74-.77-.96s-.72-.33-1.17-.33-.84.11-1.17.33-.59.54-.77.96c-.18.42-.28.94-.28,1.56s.09,1.14.28,1.56c.18.42.44.74.77.96s.72.33,1.17.33.84-.11,1.17-.33.59-.54.77-.96c.18-.42.27-.94.27-1.56Z" style="fill: #000; stroke-width: 0px;"/>
      <path d="M378.64,467.14v-8.73h1.84v7.21h3.74v1.52h-5.59Z" style="fill: #000; stroke-width: 0px;"/>
      <path d="M386.96,467.14h-1.98l3.01-8.73h2.38l3.01,8.73h-1.98l-2.19-6.73h-.07l-2.19,6.73ZM386.83,463.71h4.67v1.44h-4.67v-1.44Z" style="fill: #000; stroke-width: 0px;"/>
      <path d="M394.43,467.14v-8.73h3.44c.66,0,1.22.12,1.69.35.47.23.82.57,1.07.99s.37.93.37,1.51-.12,1.08-.38,1.49-.61.74-1.08.96c-.47.22-1.04.33-1.71.33h-2.31v-1.48h2.01c.35,0,.64-.05.88-.14.23-.1.41-.24.52-.43.11-.19.17-.43.17-.72s-.06-.54-.17-.73c-.12-.2-.29-.35-.52-.45s-.53-.16-.88-.16h-1.24v7.22h-1.84ZM399.14,463.17l2.17,3.97h-2.04l-2.12-3.97h1.99Z" style="fill: #000; stroke-width: 0px;"/>
      <path d="M402.3,467.14v-8.73h5.88v1.52h-4.04v2.08h3.73v1.52h-3.73v2.08h4.05v1.52h-5.9Z" style="fill: #000; stroke-width: 0px;"/>
    </g>
    <g>
      <path d="M834.7,459.94v-1.52h7.17v1.52h-2.67v7.21h-1.82v-7.21h-2.67Z" style="fill: #000; stroke-width: 0px;"/>
      <path d="M844.08,467.25c-.28,0-.52-.1-.72-.3-.2-.2-.3-.44-.3-.72s.1-.52.3-.72c.2-.2.44-.3.72-.3s.51.1.71.3c.21.2.31.44.31.72,0,.19-.05.36-.14.51-.09.16-.22.28-.37.37-.15.09-.32.14-.51.14Z" style="fill: #000; stroke-width: 0px;"/>
      <path d="M856.3,458.41v8.73h-1.59l-3.8-5.49h-.06v5.49h-1.85v-8.73h1.62l3.77,5.49h.08v-5.49h1.84Z" style="fill: #000; stroke-width: 0px;"/>
      <path d="M865.84,462.78c0,.95-.18,1.76-.54,2.43s-.85,1.18-1.47,1.53c-.62.35-1.31.53-2.08.53s-1.47-.18-2.09-.53c-.62-.35-1.1-.86-1.46-1.53-.36-.67-.54-1.48-.54-2.43s.18-1.76.54-2.43c.36-.67.85-1.18,1.46-1.53.62-.35,1.31-.53,2.09-.53s1.46.18,2.08.53c.62.35,1.11.86,1.47,1.53.36.67.54,1.48.54,2.43ZM863.97,462.78c0-.62-.09-1.14-.28-1.56-.18-.42-.44-.74-.77-.96-.33-.22-.72-.33-1.17-.33s-.83.11-1.17.33c-.33.22-.59.54-.77.96-.18.42-.27.94-.27,1.56s.09,1.14.27,1.56c.18.42.44.74.77.96.33.22.72.33,1.17.33s.83-.11,1.17-.33c.33-.22.59-.54.77-.96.18-.42.28-.94.28-1.56Z" style="fill: #000; stroke-width: 0px;"/>
      <path d="M874.5,458.41v8.73h-1.59l-3.8-5.49h-.06v5.49h-1.84v-8.73h1.62l3.77,5.49h.08v-5.49h1.84Z" style="fill: #000; stroke-width: 0px;"/>
      <path d="M878.81,467.14v-8.73h3.44c.66,0,1.22.12,1.69.35s.82.57,1.07.99c.25.43.37.93.37,1.51s-.12,1.08-.38,1.49-.61.74-1.08.96c-.47.22-1.04.33-1.71.33h-2.3v-1.48h2.01c.35,0,.65-.05.88-.14.23-.1.41-.24.52-.43s.17-.43.17-.72-.06-.54-.17-.73-.29-.35-.52-.45-.53-.16-.88-.16h-1.24v7.22h-1.85ZM883.52,463.17l2.17,3.97h-2.04l-2.12-3.97h1.99Z" style="fill: #000; stroke-width: 0px;"/>
      <path d="M886.68,467.14v-8.73h5.88v1.52h-4.04v2.08h3.73v1.52h-3.73v2.08h4.05v1.52h-5.9Z" style="fill: #000; stroke-width: 0px;"/>
      <path d="M899.82,461.24c-.06-.21-.14-.39-.25-.55s-.24-.3-.39-.41c-.15-.11-.33-.2-.53-.26-.2-.06-.42-.09-.65-.09-.45,0-.84.11-1.17.33-.34.22-.6.54-.79.96s-.28.94-.28,1.54.09,1.12.28,1.55.45.75.78.97c.34.22.74.33,1.2.33.42,0,.77-.07,1.07-.22s.52-.36.68-.63c.16-.27.24-.59.24-.97l.38.06h-2.25v-1.39h3.65v1.1c0,.77-.16,1.43-.49,1.98s-.77.97-1.34,1.27-1.22.45-1.95.45c-.82,0-1.54-.18-2.16-.54s-1.1-.88-1.45-1.55c-.35-.67-.52-1.46-.52-2.38,0-.71.1-1.34.31-1.89.21-.56.5-1.03.87-1.41.37-.39.81-.68,1.3-.88s1.03-.3,1.61-.3c.49,0,.95.07,1.38.21.43.14.8.35,1.14.61s.6.57.81.93.34.75.41,1.19h-1.88Z" style="fill: #000; stroke-width: 0px;"/>
      <path d="M911.18,462.78c0,.95-.18,1.76-.54,2.43s-.85,1.18-1.47,1.53c-.62.35-1.31.53-2.08.53s-1.47-.18-2.09-.53c-.62-.35-1.1-.86-1.46-1.53-.36-.67-.54-1.48-.54-2.43s.18-1.76.54-2.43c.36-.67.85-1.18,1.46-1.53s1.31-.53,2.09-.53,1.46.18,2.08.53,1.11.86,1.47,1.53c.36.67.54,1.48.54,2.43ZM909.31,462.78c0-.62-.09-1.14-.27-1.56-.18-.42-.44-.74-.77-.96s-.72-.33-1.17-.33-.83.11-1.17.33c-.33.22-.59.54-.77.96-.18.42-.28.94-.28,1.56s.09,1.14.28,1.56c.18.42.44.74.77.96.33.22.72.33,1.17.33s.84-.11,1.17-.33.59-.54.77-.96c.18-.42.27-.94.27-1.56Z" style="fill: #000; stroke-width: 0px;"/>
      <path d="M912.55,467.14v-8.73h1.84v7.21h3.74v1.52h-5.59Z" style="fill: #000; stroke-width: 0px;"/>
      <path d="M920.86,467.14h-1.98l3.01-8.73h2.38l3.01,8.73h-1.98l-2.19-6.73h-.07l-2.19,6.73ZM920.74,463.71h4.67v1.44h-4.67v-1.44Z" style="fill: #000; stroke-width: 0px;"/>
      <path d="M928.33,467.14v-8.73h3.44c.66,0,1.22.12,1.69.35.47.23.82.57,1.07.99s.37.93.37,1.51-.12,1.08-.38,1.49-.61.74-1.08.96c-.47.22-1.04.33-1.71.33h-2.31v-1.48h2.01c.35,0,.64-.05.88-.14.23-.1.41-.24.52-.43.11-.19.17-.43.17-.72s-.06-.54-.17-.73c-.12-.2-.29-.35-.52-.45s-.53-.16-.88-.16h-1.24v7.22h-1.84ZM933.04,463.17l2.17,3.97h-2.04l-2.12-3.97h1.99Z" style="fill: #000; stroke-width: 0px;"/>
      <path d="M936.21,467.14v-8.73h5.88v1.52h-4.04v2.08h3.73v1.52h-3.73v2.08h4.05v1.52h-5.9Z" style="fill: #000; stroke-width: 0px;"/>
    </g>
    <g>
      <path d="M60.04,27.21v-1.27h5.97v1.27h-2.23v6h-1.52v-6h-2.23Z" style="fill: #000; stroke-width: 0px;"/>
      <path d="M67,33.21v-7.27h2.87c.55,0,1.02.1,1.41.29.39.2.69.47.89.83s.31.77.31,1.26-.1.9-.31,1.24-.51.61-.9.8-.87.28-1.43.28h-1.92v-1.24h1.67c.29,0,.54-.04.73-.12s.34-.2.44-.36.14-.36.14-.6-.05-.45-.14-.61-.24-.29-.44-.38c-.2-.09-.44-.13-.74-.13h-1.04v6.02h-1.54ZM70.93,29.9l1.81,3.31h-1.7l-1.77-3.31h1.66Z" style="fill: #000; stroke-width: 0px;"/>
      <path d="M75.1,25.94v7.27h-1.54v-7.27h1.54Z" style="fill: #000; stroke-width: 0px;"/>
      <path d="M77.62,33.21h-1.65l2.51-7.27h1.98l2.51,7.27h-1.65l-1.82-5.61h-.06l-1.83,5.61ZM77.52,30.35h3.89v1.2h-3.89v-1.2Z" style="fill: #000; stroke-width: 0px;"/>
      <path d="M89.93,25.94v7.27h-1.33l-3.16-4.58h-.05v4.58h-1.54v-7.27h1.35l3.14,4.57h.06v-4.57h1.53Z" style="fill: #000; stroke-width: 0px;"/>
      <path d="M96.02,28.29c-.05-.17-.12-.33-.21-.46s-.2-.25-.33-.34c-.13-.09-.28-.17-.44-.21s-.35-.07-.54-.07c-.37,0-.7.09-.98.28-.28.18-.5.45-.66.8s-.23.78-.23,1.29.08.94.23,1.29c.15.36.37.63.65.81.28.19.61.28,1,.28.35,0,.65-.06.89-.19.25-.12.44-.3.57-.53.13-.23.2-.5.2-.81l.31.05h-1.88v-1.16h3.04v.92c0,.64-.13,1.19-.4,1.65-.27.46-.64.81-1.12,1.06-.47.25-1.02.37-1.63.37-.68,0-1.28-.15-1.8-.45-.52-.3-.92-.73-1.21-1.29-.29-.56-.43-1.22-.43-1.99,0-.59.09-1.12.26-1.58.17-.46.41-.86.72-1.18.31-.32.67-.57,1.08-.74.41-.17.86-.25,1.34-.25.41,0,.8.06,1.15.18.36.12.67.29.95.51.28.22.5.48.68.78.18.3.29.63.34.99h-1.56Z" style="fill: #000; stroke-width: 0px;"/>
      <path d="M105.49,29.57c0,.79-.15,1.47-.45,2.02-.3.56-.71.98-1.22,1.27-.52.29-1.09.44-1.73.44s-1.23-.15-1.74-.44c-.51-.29-.92-.72-1.22-1.27s-.45-1.23-.45-2.02.15-1.47.45-2.02c.3-.56.7-.98,1.22-1.27.51-.29,1.09-.44,1.74-.44s1.22.15,1.73.44.92.72,1.22,1.27c.3.56.45,1.23.45,2.02ZM103.93,29.57c0-.51-.08-.95-.23-1.3s-.37-.62-.64-.8c-.28-.18-.6-.27-.97-.27s-.7.09-.97.27c-.28.18-.49.45-.64.8-.15.35-.23.79-.23,1.3s.08.95.23,1.3c.15.35.37.62.64.8.28.18.6.27.97.27s.7-.09.97-.27c.28-.18.49-.45.64-.8.15-.35.23-.79.23-1.3Z" style="fill: #000; stroke-width: 0px;"/>
      <path d="M106.63,33.21v-7.27h1.54v6.01h3.12v1.27h-4.66Z" style="fill: #000; stroke-width: 0px;"/>
      <path d="M118.98,29.57c0,.79-.15,1.47-.45,2.02-.3.56-.71.98-1.22,1.27-.52.29-1.09.44-1.73.44s-1.23-.15-1.74-.44c-.51-.29-.92-.72-1.22-1.27s-.45-1.23-.45-2.02.15-1.47.45-2.02c.3-.56.7-.98,1.22-1.27.51-.29,1.09-.44,1.74-.44s1.22.15,1.73.44.92.72,1.22,1.27c.3.56.45,1.23.45,2.02ZM117.42,29.57c0-.51-.08-.95-.23-1.3s-.37-.62-.64-.8c-.28-.18-.6-.27-.97-.27s-.7.09-.97.27c-.28.18-.49.45-.64.8-.15.35-.23.79-.23,1.3s.08.95.23,1.3c.15.35.37.62.64.8.28.18.6.27.97.27s.7-.09.97-.27c.28-.18.49-.45.64-.8.15-.35.23-.79.23-1.3Z" style="fill: #000; stroke-width: 0px;"/>
      <path d="M122.44,33.21v-7.27h4.9v1.27h-3.36v1.73h3.11v1.27h-3.11v1.74h3.38v1.27h-4.91Z" style="fill: #000; stroke-width: 0px;"/>
      <path d="M135.25,29.57c0,.79-.15,1.47-.45,2.02-.3.56-.71.98-1.22,1.27-.52.29-1.09.44-1.73.44s-1.23-.15-1.74-.44c-.51-.29-.92-.72-1.22-1.27s-.45-1.23-.45-2.02.15-1.47.45-2.02c.3-.56.7-.98,1.22-1.27.51-.29,1.09-.44,1.74-.44s1.22.15,1.73.44.92.72,1.22,1.27c.3.56.45,1.23.45,2.02ZM133.69,29.57c0-.51-.08-.95-.23-1.3s-.37-.62-.64-.8c-.28-.18-.6-.27-.97-.27s-.7.09-.97.27c-.28.18-.49.45-.64.8-.15.35-.23.79-.23,1.3s.08.95.23,1.3c.15.35.37.62.64.8.28.18.6.27.97.27s.7-.09.97-.27c.28-.18.49-.45.64-.8.15-.35.23-.79.23-1.3ZM131.31,30.68h1.31l.66.85.65.75,1.22,1.53h-1.43l-.84-1.03-.43-.61-1.13-1.48Z" style="fill: #000; stroke-width: 0px;"/>
      <path d="M140.88,25.94h1.54v4.72c0,.53-.13.99-.38,1.39-.25.4-.6.71-1.06.93s-.98.33-1.58.33-1.13-.11-1.58-.33-.8-.53-1.05-.93c-.25-.4-.38-.86-.38-1.39v-4.72h1.54v4.59c0,.28.06.52.18.74s.29.38.52.51c.22.12.48.18.78.18s.56-.06.78-.18c.22-.12.39-.29.52-.51s.18-.46.18-.74v-4.59Z" style="fill: #000; stroke-width: 0px;"/>
      <path d="M145.22,25.94v7.27h-1.54v-7.27h1.54Z" style="fill: #000; stroke-width: 0px;"/>
      <path d="M146.49,33.21v-7.27h1.54v6.01h3.12v1.27h-4.66Z" style="fill: #000; stroke-width: 0px;"/>
      <path d="M153.42,33.21h-1.65l2.51-7.27h1.98l2.51,7.27h-1.65l-1.82-5.61h-.06l-1.83,5.61ZM153.32,30.35h3.89v1.2h-3.89v-1.2Z" style="fill: #000; stroke-width: 0px;"/>
      <path d="M159.37,27.21v-1.27h5.97v1.27h-2.23v6h-1.52v-6h-2.23Z" style="fill: #000; stroke-width: 0px;"/>
      <path d="M166.33,33.21v-7.27h4.9v1.27h-3.36v1.73h3.11v1.27h-3.11v1.74h3.38v1.27h-4.91Z" style="fill: #000; stroke-width: 0px;"/>
      <path d="M172.45,33.21v-7.27h2.87c.55,0,1.02.1,1.41.29.39.2.69.47.89.83s.31.77.31,1.26-.1.9-.31,1.24-.51.61-.9.8-.87.28-1.43.28h-1.92v-1.24h1.67c.29,0,.54-.04.73-.12s.34-.2.44-.36.14-.36.14-.6-.05-.45-.14-.61-.24-.29-.44-.38c-.2-.09-.44-.13-.74-.13h-1.04v6.02h-1.54ZM176.38,29.9l1.81,3.31h-1.7l-1.77-3.31h1.66Z" style="fill: #000; stroke-width: 0px;"/>
      <path d="M185.7,29.57c0,.79-.15,1.47-.45,2.02-.3.56-.71.98-1.22,1.27-.52.29-1.09.44-1.73.44s-1.23-.15-1.74-.44c-.51-.29-.92-.72-1.22-1.27s-.45-1.23-.45-2.02.15-1.47.45-2.02c.3-.56.7-.98,1.22-1.27.51-.29,1.09-.44,1.74-.44s1.22.15,1.73.44.92.72,1.22,1.27c.3.56.45,1.23.45,2.02ZM184.14,29.57c0-.51-.08-.95-.23-1.3s-.37-.62-.64-.8c-.28-.18-.6-.27-.97-.27s-.7.09-.97.27c-.28.18-.49.45-.64.8-.15.35-.23.79-.23,1.3s.08.95.23,1.3c.15.35.37.62.64.8.28.18.6.27.97.27s.7-.09.97-.27c.28-.18.49-.45.64-.8.15-.35.23-.79.23-1.3Z" style="fill: #000; stroke-width: 0px;"/>
    </g>
    <g>
      <path d="M871.39,33.23v-7.27h2.87c.55,0,1.02.1,1.41.31s.68.5.89.87.31.8.31,1.28-.1.91-.31,1.28c-.21.37-.51.66-.9.86s-.87.31-1.43.31h-1.83v-1.23h1.58c.3,0,.54-.05.73-.15.19-.1.34-.25.43-.43.1-.18.14-.4.14-.63s-.05-.45-.14-.63c-.1-.18-.24-.32-.43-.42s-.44-.15-.74-.15h-1.04v6.02h-1.54Z" style="fill: #000; stroke-width: 0px;"/>
      <path d="M877.87,33.23v-7.27h4.9v1.27h-3.36v1.73h3.11v1.27h-3.11v1.74h3.38v1.27h-4.92Z" style="fill: #000; stroke-width: 0px;"/>
      <path d="M890.08,25.95v7.27h-1.33l-3.16-4.58h-.05v4.58h-1.54v-7.27h1.35l3.14,4.57h.06v-4.57h1.53Z" style="fill: #000; stroke-width: 0px;"/>
      <path d="M891.07,27.22v-1.27h5.97v1.27h-2.23v6h-1.52v-6h-2.23Z" style="fill: #000; stroke-width: 0px;"/>
      <path d="M899.28,33.23h-1.65l2.51-7.27h1.98l2.51,7.27h-1.65l-1.82-5.61h-.06l-1.83,5.61ZM899.18,30.37h3.89v1.2h-3.89v-1.2Z" style="fill: #000; stroke-width: 0px;"/>
      <path d="M910.33,28.3c-.05-.17-.12-.33-.21-.46s-.2-.25-.33-.34c-.13-.09-.28-.17-.44-.21-.17-.05-.35-.07-.55-.07-.37,0-.7.09-.98.28-.28.18-.5.45-.66.8s-.23.78-.23,1.29.08.94.23,1.29c.15.36.37.63.65.81.28.19.61.28,1,.28.35,0,.65-.06.89-.19.25-.12.44-.3.57-.53.13-.23.2-.5.2-.81l.31.05h-1.88v-1.16h3.04v.92c0,.64-.14,1.19-.41,1.65-.27.46-.64.81-1.12,1.06-.47.25-1.02.37-1.63.37-.68,0-1.28-.15-1.8-.45-.52-.3-.92-.73-1.21-1.29-.29-.56-.43-1.22-.43-1.99,0-.59.09-1.12.26-1.58.17-.46.41-.86.72-1.18.31-.32.67-.57,1.08-.74s.86-.25,1.34-.25c.41,0,.8.06,1.15.18.36.12.67.29.95.51.28.22.5.48.68.78.17.3.29.63.34.99h-1.56Z" style="fill: #000; stroke-width: 0px;"/>
      <path d="M919.8,29.59c0,.79-.15,1.47-.45,2.02-.3.56-.71.98-1.22,1.27-.51.29-1.09.44-1.73.44s-1.23-.15-1.74-.44-.92-.72-1.22-1.27c-.3-.56-.45-1.23-.45-2.02s.15-1.47.45-2.02c.3-.56.7-.98,1.22-1.27s1.09-.44,1.74-.44,1.22.15,1.73.44.92.72,1.22,1.27c.3.56.45,1.23.45,2.02ZM918.24,29.59c0-.51-.08-.95-.23-1.3s-.37-.62-.64-.8c-.28-.18-.6-.27-.97-.27s-.7.09-.97.27c-.28.18-.49.45-.64.8-.15.35-.23.79-.23,1.3s.08.95.23,1.3c.15.35.37.62.64.8.28.18.6.27.97.27s.7-.09.97-.27c.28-.18.49-.45.64-.8.15-.35.23-.79.23-1.3Z" style="fill: #000; stroke-width: 0px;"/>
      <path d="M927.02,25.95v7.27h-1.33l-3.16-4.58h-.05v4.58h-1.54v-7.27h1.35l3.14,4.57h.06v-4.57h1.53Z" style="fill: #000; stroke-width: 0px;"/>
      <path d="M934.97,29.59c0,.79-.15,1.47-.45,2.02-.3.56-.71.98-1.22,1.27-.51.29-1.09.44-1.73.44s-1.23-.15-1.74-.44-.92-.72-1.22-1.27c-.3-.56-.45-1.23-.45-2.02s.15-1.47.45-2.02c.3-.56.7-.98,1.22-1.27s1.09-.44,1.74-.44,1.22.15,1.73.44.92.72,1.22,1.27c.3.56.45,1.23.45,2.02ZM933.41,29.59c0-.51-.08-.95-.23-1.3s-.37-.62-.64-.8c-.28-.18-.6-.27-.97-.27s-.7.09-.97.27c-.28.18-.49.45-.64.8-.15.35-.23.79-.23,1.3s.08.95.23,1.3c.15.35.37.62.64.8.28.18.6.27.97.27s.7-.09.97-.27c.28-.18.49-.45.64-.8.15-.35.23-.79.23-1.3Z" style="fill: #000; stroke-width: 0px;"/>
    </g>
  </g>
  <g id="T.">
    <g>
      <path d="M330.61,459.94v-1.52h7.17v1.52h-2.67v7.21h-1.82v-7.21h-2.67Z" style="fill: #000; stroke-width: 0px;"/>
      <path d="M339.99,467.25c-.28,0-.52-.1-.72-.3-.2-.2-.3-.44-.3-.72s.1-.52.3-.72c.2-.2.44-.3.72-.3s.51.1.72.3.31.44.31.72c0,.19-.05.36-.14.51s-.22.28-.37.37c-.15.09-.32.14-.51.14Z" style="fill: #000; stroke-width: 0px;"/>
      <path d="M344.9,467.14v-8.73h3.44c.66,0,1.22.12,1.69.35s.82.57,1.07.99.37.93.37,1.51-.12,1.08-.38,1.49-.61.74-1.08.96c-.47.22-1.04.33-1.72.33h-2.31v-1.48h2.01c.35,0,.65-.05.88-.14s.41-.24.52-.43.17-.43.17-.72-.06-.54-.17-.73-.29-.35-.52-.45-.53-.16-.88-.16h-1.24v7.22h-1.85ZM349.62,463.17l2.17,3.97h-2.04l-2.12-3.97h1.99Z" style="fill: #000; stroke-width: 0px;"/>
      <path d="M352.78,467.14v-8.73h5.88v1.52h-4.04v2.08h3.73v1.52h-3.73v2.08h4.05v1.52h-5.9Z" style="fill: #000; stroke-width: 0px;"/>
      <path d="M365.92,461.24c-.06-.21-.14-.39-.25-.55s-.24-.3-.39-.41-.33-.2-.53-.26c-.2-.06-.42-.09-.65-.09-.45,0-.84.11-1.17.33-.34.22-.6.54-.79.96s-.28.94-.28,1.54.09,1.12.28,1.55.45.75.78.97c.34.22.74.33,1.2.33.42,0,.77-.07,1.07-.22s.52-.36.68-.63.24-.59.24-.97l.38.06h-2.25v-1.39h3.65v1.1c0,.77-.16,1.43-.49,1.98s-.77.97-1.34,1.27c-.57.3-1.22.45-1.95.45-.82,0-1.54-.18-2.16-.54-.62-.36-1.1-.88-1.45-1.55s-.52-1.46-.52-2.38c0-.71.1-1.34.31-1.89.21-.56.5-1.03.87-1.41.37-.39.81-.68,1.3-.88.49-.2,1.03-.3,1.61-.3.49,0,.95.07,1.38.21.43.14.8.35,1.14.61.33.26.6.57.81.93.21.36.35.75.4,1.19h-1.88Z" style="fill: #000; stroke-width: 0px;"/>
      <path d="M377.28,462.78c0,.95-.18,1.76-.54,2.43s-.85,1.18-1.46,1.53c-.62.35-1.31.53-2.08.53s-1.47-.18-2.09-.53c-.62-.35-1.1-.86-1.46-1.53-.36-.67-.54-1.48-.54-2.43s.18-1.76.54-2.43c.36-.67.84-1.18,1.46-1.53.62-.35,1.31-.53,2.09-.53s1.46.18,2.08.53c.62.35,1.11.86,1.46,1.53.36.67.54,1.48.54,2.43ZM375.41,462.78c0-.62-.09-1.14-.27-1.56-.18-.42-.44-.74-.77-.96s-.72-.33-1.17-.33-.84.11-1.17.33-.59.54-.77.96c-.18.42-.28.94-.28,1.56s.09,1.14.28,1.56c.18.42.44.74.77.96s.72.33,1.17.33.84-.11,1.17-.33.59-.54.77-.96c.18-.42.27-.94.27-1.56Z" style="fill: #000; stroke-width: 0px;"/>
      <path d="M378.64,467.14v-8.73h1.84v7.21h3.74v1.52h-5.59Z" style="fill: #000; stroke-width: 0px;"/>
      <path d="M386.96,467.14h-1.98l3.01-8.73h2.38l3.01,8.73h-1.98l-2.19-6.73h-.07l-2.19,6.73ZM386.83,463.71h4.67v1.44h-4.67v-1.44Z" style="fill: #000; stroke-width: 0px;"/>
      <path d="M394.43,467.14v-8.73h3.44c.66,0,1.22.12,1.69.35.47.23.82.57,1.07.99s.37.93.37,1.51-.12,1.08-.38,1.49-.61.74-1.08.96c-.47.22-1.04.33-1.71.33h-2.31v-1.48h2.01c.35,0,.64-.05.88-.14.23-.1.41-.24.52-.43.11-.19.17-.43.17-.72s-.06-.54-.17-.73c-.12-.2-.29-.35-.52-.45s-.53-.16-.88-.16h-1.24v7.22h-1.84ZM399.14,463.17l2.17,3.97h-2.04l-2.12-3.97h1.99Z" style="fill: #000; stroke-width: 0px;"/>
      <path d="M402.3,467.14v-8.73h5.88v1.52h-4.04v2.08h3.73v1.52h-3.73v2.08h4.05v1.52h-5.9Z" style="fill: #000; stroke-width: 0px;"/>
    </g>
    <g>
      <path d="M834.7,459.94v-1.52h7.17v1.52h-2.67v7.21h-1.82v-7.21h-2.67Z" style="fill: #000; stroke-width: 0px;"/>
      <path d="M844.08,467.25c-.28,0-.52-.1-.72-.3-.2-.2-.3-.44-.3-.72s.1-.52.3-.72c.2-.2.44-.3.72-.3s.51.1.71.3c.21.2.31.44.31.72,0,.19-.05.36-.14.51-.09.16-.22.28-.37.37-.15.09-.32.14-.51.14Z" style="fill: #000; stroke-width: 0px;"/>
      <path d="M856.3,458.41v8.73h-1.59l-3.8-5.49h-.06v5.49h-1.85v-8.73h1.62l3.77,5.49h.08v-5.49h1.84Z" style="fill: #000; stroke-width: 0px;"/>
      <path d="M865.84,462.78c0,.95-.18,1.76-.54,2.43s-.85,1.18-1.47,1.53c-.62.35-1.31.53-2.08.53s-1.47-.18-2.09-.53c-.62-.35-1.1-.86-1.46-1.53-.36-.67-.54-1.48-.54-2.43s.18-1.76.54-2.43c.36-.67.85-1.18,1.46-1.53.62-.35,1.31-.53,2.09-.53s1.46.18,2.08.53c.62.35,1.11.86,1.47,1.53.36.67.54,1.48.54,2.43ZM863.97,462.78c0-.62-.09-1.14-.28-1.56-.18-.42-.44-.74-.77-.96-.33-.22-.72-.33-1.17-.33s-.83.11-1.17.33c-.33.22-.59.54-.77.96-.18.42-.27.94-.27,1.56s.09,1.14.27,1.56c.18.42.44.74.77.96.33.22.72.33,1.17.33s.83-.11,1.17-.33c.33-.22.59-.54.77-.96.18-.42.28-.94.28-1.56Z" style="fill: #000; stroke-width: 0px;"/>
      <path d="M874.5,458.41v8.73h-1.59l-3.8-5.49h-.06v5.49h-1.84v-8.73h1.62l3.77,5.49h.08v-5.49h1.84Z" style="fill: #000; stroke-width: 0px;"/>
      <path d="M878.81,467.14v-8.73h3.44c.66,0,1.22.12,1.69.35s.82.57,1.07.99c.25.43.37.93.37,1.51s-.12,1.08-.38,1.49-.61.74-1.08.96c-.47.22-1.04.33-1.71.33h-2.3v-1.48h2.01c.35,0,.65-.05.88-.14.23-.1.41-.24.52-.43s.17-.43.17-.72-.06-.54-.17-.73-.29-.35-.52-.45-.53-.16-.88-.16h-1.24v7.22h-1.85ZM883.52,463.17l2.17,3.97h-2.04l-2.12-3.97h1.99Z" style="fill: #000; stroke-width: 0px;"/>
      <path d="M886.68,467.14v-8.73h5.88v1.52h-4.04v2.08h3.73v1.52h-3.73v2.08h4.05v1.52h-5.9Z" style="fill: #000; stroke-width: 0px;"/>
      <path d="M899.82,461.24c-.06-.21-.14-.39-.25-.55s-.24-.3-.39-.41c-.15-.11-.33-.2-.53-.26-.2-.06-.42-.09-.65-.09-.45,0-.84.11-1.17.33-.34.22-.6.54-.79.96s-.28.94-.28,1.54.09,1.12.28,1.55.45.75.78.97c.34.22.74.33,1.2.33.42,0,.77-.07,1.07-.22s.52-.36.68-.63c.16-.27.24-.59.24-.97l.38.06h-2.25v-1.39h3.65v1.1c0,.77-.16,1.43-.49,1.98s-.77.97-1.34,1.27-1.22.45-1.95.45c-.82,0-1.54-.18-2.16-.54s-1.1-.88-1.45-1.55c-.35-.67-.52-1.46-.52-2.38,0-.71.1-1.34.31-1.89.21-.56.5-1.03.87-1.41.37-.39.81-.68,1.3-.88s1.03-.3,1.61-.3c.49,0,.95.07,1.38.21.43.14.8.35,1.14.61s.6.57.81.93.34.75.41,1.19h-1.88Z" style="fill: #000; stroke-width: 0px;"/>
      <path d="M911.18,462.78c0,.95-.18,1.76-.54,2.43s-.85,1.18-1.47,1.53c-.62.35-1.31.53-2.08.53s-1.47-.18-2.09-.53c-.62-.35-1.1-.86-1.46-1.53-.36-.67-.54-1.48-.54-2.43s.18-1.76.54-2.43c.36-.67.85-1.18,1.46-1.53s1.31-.53,2.09-.53,1.46.18,2.08.53,1.11.86,1.47,1.53c.36.67.54,1.48.54,2.43ZM909.31,462.78c0-.62-.09-1.14-.27-1.56-.18-.42-.44-.74-.77-.96s-.72-.33-1.17-.33-.83.11-1.17.33c-.33.22-.59.54-.77.96-.18.42-.28.94-.28,1.56s.09,1.14.28,1.56c.18.42.44.74.77.96.33.22.72.33,1.17.33s.84-.11,1.17-.33.59-.54.77-.96c.18-.42.27-.94.27-1.56Z" style="fill: #000; stroke-width: 0px;"/>
      <path d="M912.55,467.14v-8.73h1.84v7.21h3.74v1.52h-5.59Z" style="fill: #000; stroke-width: 0px;"/>
      <path d="M920.86,467.14h-1.98l3.01-8.73h2.38l3.01,8.73h-1.98l-2.19-6.73h-.07l-2.19,6.73ZM920.74,463.71h4.67v1.44h-4.67v-1.44Z" style="fill: #000; stroke-width: 0px;"/>
      <path d="M928.33,467.14v-8.73h3.44c.66,0,1.22.12,1.69.35.47.23.82.57,1.07.99s.37.93.37,1.51-.12,1.08-.38,1.49-.61.74-1.08.96c-.47.22-1.04.33-1.71.33h-2.31v-1.48h2.01c.35,0,.64-.05.88-.14.23-.1.41-.24.52-.43.11-.19.17-.43.17-.72s-.06-.54-.17-.73c-.12-.2-.29-.35-.52-.45s-.53-.16-.88-.16h-1.24v7.22h-1.84ZM933.04,463.17l2.17,3.97h-2.04l-2.12-3.97h1.99Z" style="fill: #000; stroke-width: 0px;"/>
      <path d="M936.21,467.14v-8.73h5.88v1.52h-4.04v2.08h3.73v1.52h-3.73v2.08h4.05v1.52h-5.9Z" style="fill: #000; stroke-width: 0px;"/>
    </g>
  </g>
</svg>