<?xml version="1.0" encoding="UTF-8"?>
<svg id="Livello_2" data-name="Livello 2" xmlns="http://www.w3.org/2000/svg" viewBox="0 0 898.59 443">
  <defs>
    <style>
      .cls-1, .cls-2, .cls-3, .cls-4, .cls-5, .cls-6 {
        stroke: red;
        stroke-width: 3px;
      }

      .cls-1, .cls-2, .cls-5 {
        stroke-linecap: round;
        stroke-linejoin: round;
      }

      .cls-1, .cls-4 {
        fill: #ccc;
      }

      .cls-2, .cls-3, .cls-7 {
        fill: lime;
      }

      .cls-3, .cls-4, .cls-6 {
        stroke-miterlimit: 10;
      }

      .cls-5, .cls-6 {
        fill: #f0ff00;
      }

      .cls-7 {
        stroke-width: 0px;
      }
    </style>
  </defs>
  <g>
    <polygon class="cls-7" points="48.65 26.07 36.92 46.39 60.24 46.37 48.65 26.07"/>
    <polygon class="cls-7" points="95.66 26.25 83.93 46.56 107.25 46.54 95.66 26.25"/>
    <polygon class="cls-7" points="142.68 26.25 130.95 46.56 154.27 46.54 142.68 26.25"/>
    <polygon class="cls-7" points="48.65 107.31 36.92 127.63 60.24 127.6 48.65 107.31"/>
    <polygon class="cls-7" points="95.66 107.48 83.93 127.8 107.25 127.78 95.66 107.48"/>
    <polygon class="cls-7" points="142.68 107.48 130.95 127.8 154.27 127.78 142.68 107.48"/>
    <polygon class="cls-7" points="71.91 148.33 60.18 168.64 83.5 168.62 71.91 148.33"/>
    <polygon class="cls-7" points="118.92 148.5 107.19 168.82 130.51 168.79 118.92 148.5"/>
    <polygon class="cls-7" points="165.93 148.5 154.2 168.82 177.52 168.79 165.93 148.5"/>
    <polygon class="cls-7" points="71.97 66.69 60.24 87.01 83.56 86.98 71.97 66.69"/>
    <polygon class="cls-7" points="118.98 66.87 107.25 87.18 130.57 87.16 118.98 66.87"/>
    <polygon class="cls-7" points="166 66.87 154.27 87.18 177.58 87.16 166 66.87"/>
    <polygon class="cls-7" points="71.97 148.11 60.24 127.79 83.56 127.82 71.97 148.11"/>
    <polygon class="cls-7" points="118.98 147.94 107.25 127.62 130.57 127.64 118.98 147.94"/>
    <polygon class="cls-7" points="166 147.94 154.27 127.62 177.58 127.64 166 147.94"/>
    <polygon class="cls-7" points="48.29 188.7 36.56 168.39 59.88 168.41 48.29 188.7"/>
    <polygon class="cls-7" points="95.3 188.53 83.57 168.21 106.89 168.23 95.3 188.53"/>
    <polygon class="cls-7" points="142.32 188.53 130.59 168.21 153.91 168.23 142.32 188.53"/>
    <polygon class="cls-7" points="71.97 66.87 60.24 46.56 83.56 46.58 71.97 66.87"/>
    <polygon class="cls-7" points="118.98 66.7 107.25 46.38 130.57 46.4 118.98 66.7"/>
    <polygon class="cls-7" points="166 66.7 154.27 46.38 177.58 46.4 166 66.7"/>
    <polygon class="cls-7" points="95.66 107.32 83.93 87 107.25 87.02 95.66 107.32"/>
    <polygon class="cls-7" points="142.68 107.32 130.95 87 154.27 87.02 142.68 107.32"/>
    <polygon class="cls-7" points="48.65 107.49 36.92 87.17 60.24 87.2 48.65 107.49"/>
  </g>
  <g>
    <polygon class="cls-4" points="83.84 86.98 60.38 86.98 48.65 107.29 60.38 127.61 83.84 127.61 95.57 107.29 83.84 86.98"/>
    <polygon class="cls-4" points="36.92 5.75 13.46 5.75 1.73 26.07 13.46 46.39 36.92 46.39 48.65 26.07 36.92 5.75"/>
    <polygon class="cls-4" points="60.24 46.37 36.78 46.37 25.05 66.68 36.78 87 60.24 87 71.97 66.68 60.24 46.37"/>
    <polygon class="cls-4" points="107.16 46.37 83.7 46.37 71.97 66.68 83.7 87 107.16 87 118.89 66.68 107.16 46.37"/>
    <polygon class="cls-4" points="83.84 5.75 60.38 5.75 48.65 26.07 60.38 46.39 83.84 46.39 95.57 26.07 83.84 5.75"/>
    <polygon class="cls-4" points="130.76 5.75 107.3 5.75 95.57 26.07 107.3 46.39 130.76 46.39 142.49 26.07 130.76 5.75"/>
    <polygon class="cls-4" points="154.08 46.37 130.62 46.37 118.89 66.68 130.62 87 154.08 87 165.81 66.68 154.08 46.37"/>
    <polygon class="cls-4" points="201 46.37 177.54 46.37 165.81 66.68 177.54 87 201 87 212.73 66.68 201 46.37"/>
    <polygon class="cls-4" points="177.68 5.75 154.22 5.75 142.49 26.07 154.22 46.39 177.68 46.39 189.41 26.07 177.68 5.75"/>
    <polygon class="cls-4" points="36.92 86.98 13.46 86.98 1.73 107.29 13.46 127.61 36.92 127.61 48.65 107.29 36.92 86.98"/>
    <polygon class="cls-4" points="60.24 127.59 36.78 127.59 25.05 147.9 36.78 168.22 60.24 168.22 71.97 147.9 60.24 127.59"/>
    <polygon class="cls-4" points="107.16 127.59 83.7 127.59 71.97 147.9 83.7 168.22 107.16 168.22 118.89 147.9 107.16 127.59"/>
    <polygon class="cls-4" points="130.76 86.98 107.3 86.98 95.57 107.29 107.3 127.61 130.76 127.61 142.49 107.29 130.76 86.98"/>
    <polygon class="cls-4" points="154.08 127.59 130.62 127.59 118.89 147.9 130.62 168.22 154.08 168.22 165.81 147.9 154.08 127.59"/>
    <polygon class="cls-4" points="201 127.59 177.54 127.59 165.81 147.9 177.54 168.22 201 168.22 212.73 147.9 201 127.59"/>
    <polygon class="cls-4" points="36.98 168.6 13.52 168.6 1.79 188.92 13.52 209.24 36.98 209.24 48.71 188.92 36.98 168.6"/>
    <polygon class="cls-4" points="83.9 168.6 60.44 168.6 48.71 188.92 60.44 209.24 83.9 209.24 95.63 188.92 83.9 168.6"/>
    <polygon class="cls-4" points="130.82 168.6 107.36 168.6 95.63 188.92 107.36 209.24 130.82 209.24 142.55 188.92 130.82 168.6"/>
    <polygon class="cls-4" points="177.74 168.6 154.28 168.6 142.55 188.92 154.28 209.24 177.74 209.24 189.47 188.92 177.74 168.6"/>
    <polygon class="cls-4" points="177.68 86.98 154.22 86.98 142.49 107.29 154.22 127.61 177.68 127.61 189.41 107.29 177.68 86.98"/>
  </g>
  <g>
    <polygon class="cls-2" points="334.91 73.41 315.55 106.93 354.26 106.93 334.91 73.41"/>
    <polygon class="cls-2" points="334.91 140.38 315.55 106.86 354.26 106.86 334.91 140.38"/>
    <polygon class="cls-2" points="387.71 126.21 368.36 159.73 407.06 159.73 387.71 126.21"/>
    <polygon class="cls-2" points="387.71 193.18 368.36 159.66 407.06 159.66 387.71 193.18"/>
    <polygon class="cls-2" points="387.71 20.83 368.36 54.35 407.06 54.35 387.71 20.83"/>
    <polygon class="cls-2" points="387.71 87.79 368.36 54.27 407.06 54.27 387.71 87.79"/>
    <polygon class="cls-2" points="281.95 126.21 262.6 159.73 301.31 159.73 281.95 126.21"/>
    <polygon class="cls-2" points="281.95 193.18 262.6 159.66 301.31 159.66 281.95 193.18"/>
    <polygon class="cls-2" points="281.95 20.83 262.6 54.35 301.31 54.35 281.95 20.83"/>
    <polygon class="cls-2" points="281.95 87.79 262.6 54.27 301.31 54.27 281.95 87.79"/>
    <polygon class="cls-2" points="368.5 159.7 334.98 140.35 334.98 179.05 368.5 159.7"/>
    <polygon class="cls-2" points="301.53 159.7 335.05 140.35 335.05 179.05 301.53 159.7"/>
    <polygon class="cls-2" points="368.5 54.31 334.98 34.96 334.98 73.66 368.5 54.31"/>
    <polygon class="cls-2" points="301.53 54.31 335.05 34.96 335.05 73.66 301.53 54.31"/>
    <polygon class="cls-2" points="315.44 107 281.92 87.65 281.92 126.36 315.44 107"/>
    <polygon class="cls-2" points="248.47 107 281.99 87.65 281.99 126.36 248.47 107"/>
    <polygon class="cls-2" points="421.19 107 387.67 87.65 387.67 126.36 421.19 107"/>
    <polygon class="cls-2" points="354.22 107 387.74 87.65 387.74 126.36 354.22 107"/>
  </g>
  <g>
    <rect class="cls-1" x="341.96" y="113.97" width="38.68" height="38.68" transform="translate(65.2 379.55) rotate(-60)"/>
    <rect class="cls-1" x="236.57" y="113.97" width="38.68" height="38.68" transform="translate(12.51 288.28) rotate(-60)"/>
    <rect class="cls-1" x="289.26" y="166.66" width="38.68" height="38.68" transform="translate(-6.78 360.26) rotate(-60)"/>
    <rect class="cls-1" x="341.96" y="8.58" width="38.68" height="38.68" transform="translate(156.47 326.85) rotate(-60)"/>
    <rect class="cls-1" x="289.26" y="61.27" width="38.68" height="38.68" transform="translate(84.49 307.57) rotate(-60)"/>
    <rect class="cls-1" x="394.65" y="61.27" width="38.68" height="38.68" transform="translate(137.18 398.83) rotate(-60)"/>
    <rect class="cls-1" x="289.16" y="113.97" width="38.68" height="38.68" transform="translate(347.3 467.13) rotate(-120)"/>
    <rect class="cls-1" x="394.54" y="113.97" width="38.68" height="38.68" transform="translate(505.38 558.39) rotate(-120)"/>
    <rect class="cls-1" x="236.46" y="61.27" width="38.68" height="38.68" transform="translate(313.89 342.45) rotate(-120)"/>
    <rect class="cls-1" x="341.85" y="166.66" width="38.68" height="38.68" transform="translate(380.7 591.8) rotate(-120)"/>
    <rect class="cls-1" x="341.85" y="61.27" width="38.68" height="38.68" transform="translate(471.97 433.72) rotate(-120)"/>
    <rect class="cls-1" x="289.16" y="8.58" width="38.68" height="38.68" transform="translate(438.57 309.04) rotate(-120)"/>
  </g>
  <g>
    <g>
      <rect class="cls-1" x="573.51" y="88.08" width="38.25" height="38.25"/>
      <rect class="cls-1" x="611.37" y="88.12" width="38.25" height="38.25"/>
      <rect class="cls-1" x="535.28" y="88.08" width="38.25" height="38.25"/>
      <rect class="cls-1" x="497.05" y="88.08" width="38.25" height="38.25"/>
      <rect class="cls-1" x="458.82" y="88.08" width="38.25" height="38.25"/>
      <rect class="cls-1" x="592.86" y="16.93" width="38.25" height="38.25"/>
      <rect class="cls-1" x="630.72" y="16.89" width="38.25" height="38.25"/>
      <rect class="cls-1" x="554.62" y="16.93" width="38.25" height="38.25"/>
      <rect class="cls-1" x="516.39" y="16.93" width="38.25" height="38.25"/>
      <rect class="cls-1" x="478.16" y="16.93" width="38.25" height="38.25"/>
    </g>
    <rect class="cls-1" x="592.86" y="159.06" width="38.25" height="38.25"/>
    <rect class="cls-1" x="630.72" y="159.02" width="38.25" height="38.25"/>
    <rect class="cls-1" x="554.62" y="159.06" width="38.25" height="38.25"/>
    <rect class="cls-1" x="516.39" y="159.06" width="38.25" height="38.25"/>
    <rect class="cls-1" x="478.16" y="159.06" width="38.25" height="38.25"/>
  </g>
  <g>
    <polygon class="cls-2" points="592.55 55.12 573.51 88.08 611.58 88.08 592.55 55.12"/>
    <polygon class="cls-2" points="630.33 55.12 611.3 88.08 649.36 88.08 630.33 55.12"/>
    <polygon class="cls-2" points="554.31 55.12 535.28 88.08 573.35 88.08 554.31 55.12"/>
    <polygon class="cls-2" points="516.08 55.12 497.05 88.08 535.11 88.08 516.08 55.12"/>
    <polygon class="cls-2" points="477.85 55.12 458.82 88.08 496.88 88.08 477.85 55.12"/>
    <polygon class="cls-2" points="611.89 88.14 592.86 55.18 630.92 55.18 611.89 88.14"/>
    <polygon class="cls-2" points="649.67 88.14 630.64 55.18 668.7 55.18 649.67 88.14"/>
    <polygon class="cls-2" points="573.65 88.14 554.62 55.18 592.69 55.18 573.65 88.14"/>
    <polygon class="cls-2" points="535.42 88.14 516.39 55.18 554.45 55.18 535.42 88.14"/>
    <polygon class="cls-2" points="497.19 88.14 478.16 55.18 516.22 55.18 497.19 88.14"/>
    <polygon class="cls-2" points="611.89 126.19 592.86 159.15 630.92 159.15 611.89 126.19"/>
    <polygon class="cls-2" points="649.67 126.19 630.64 159.15 668.7 159.15 649.67 126.19"/>
    <polygon class="cls-2" points="573.65 126.19 554.62 159.15 592.69 159.15 573.65 126.19"/>
    <polygon class="cls-2" points="535.42 126.19 516.39 159.15 554.45 159.15 535.42 126.19"/>
    <polygon class="cls-2" points="497.19 126.19 478.16 159.15 516.22 159.15 497.19 126.19"/>
    <polygon class="cls-2" points="631.23 159.21 612.2 126.25 650.26 126.25 631.23 159.21"/>
    <polygon class="cls-2" points="593 159.21 573.96 126.25 612.03 126.25 593 159.21"/>
    <polygon class="cls-2" points="554.76 159.21 535.73 126.25 573.8 126.25 554.76 159.21"/>
    <polygon class="cls-2" points="516.53 159.21 497.5 126.25 535.56 126.25 516.53 159.21"/>
    <polygon class="cls-2" points="478.3 159.21 459.27 126.25 497.33 126.25 478.3 159.21"/>
  </g>
  <g>
    <polygon class="cls-4" points="801.95 107.13 780.81 107.13 770.24 125.44 780.81 143.75 801.95 143.75 812.52 125.44 801.95 107.13"/>
    <polygon class="cls-4" points="865.37 143.75 844.23 143.75 833.66 162.06 844.23 180.37 865.37 180.37 875.94 162.06 865.37 143.75"/>
    <polygon class="cls-4" points="801.95 33.9 780.81 33.9 770.23 52.21 780.81 70.52 801.95 70.52 812.52 52.21 801.95 33.9"/>
    <polygon class="cls-4" points="865.37 70.52 844.23 70.52 833.66 88.82 844.23 107.13 865.37 107.13 875.94 88.82 865.37 70.52"/>
    <polygon class="cls-4" points="738.52 143.75 717.38 143.75 706.81 162.06 717.38 180.37 738.52 180.37 749.09 162.06 738.52 143.75"/>
    <polygon class="cls-4" points="738.52 70.52 717.38 70.52 706.81 88.83 717.38 107.13 738.52 107.13 749.09 88.83 738.52 70.52"/>
  </g>
  <g>
    <polygon class="cls-2" points="770.24 125.44 759.66 143.75 780.81 143.75 770.24 125.44"/>
    <polygon class="cls-2" points="780.81 143.75 770.24 162.06 791.38 162.06 780.81 143.75"/>
    <polygon class="cls-2" points="801.95 143.75 791.38 162.06 812.52 162.06 801.95 143.75"/>
    <polygon class="cls-2" points="812.52 125.44 801.95 143.75 823.09 143.75 812.52 125.44"/>
    <polygon class="cls-2" points="791.38 88.82 780.81 107.13 801.95 107.13 791.38 88.82"/>
    <polygon class="cls-2" points="770.24 88.82 759.66 107.13 780.81 107.13 770.24 88.82"/>
    <polygon class="cls-2" points="812.52 88.82 801.95 107.13 823.09 107.13 812.52 88.82"/>
    <polygon class="cls-2" points="770.24 162.06 759.66 143.75 780.81 143.75 770.24 162.06"/>
    <polygon class="cls-2" points="759.66 107.13 749.09 125.44 770.24 125.44 759.66 107.13"/>
    <polygon class="cls-2" points="759.66 143.75 749.09 125.44 770.24 125.44 759.66 143.75"/>
    <polygon class="cls-2" points="823.09 107.13 812.52 125.44 833.66 125.44 823.09 107.13"/>
    <polygon class="cls-2" points="823.09 143.75 812.52 125.44 833.66 125.44 823.09 143.75"/>
    <polygon class="cls-2" points="770.24 125.44 759.66 107.13 780.81 107.13 770.24 125.44"/>
    <polygon class="cls-2" points="812.52 162.06 801.95 143.75 823.09 143.75 812.52 162.06"/>
    <polygon class="cls-2" points="812.52 125.44 801.95 107.13 823.09 107.13 812.52 125.44"/>
    <polygon class="cls-2" points="791.38 162.06 780.81 143.75 801.95 143.75 791.38 162.06"/>
    <polygon class="cls-2" points="780.81 107.13 770.24 88.82 791.38 88.82 780.81 107.13"/>
    <polygon class="cls-2" points="801.95 107.13 791.38 88.82 812.52 88.82 801.95 107.13"/>
    <polygon class="cls-2" points="833.66 162.06 823.09 180.37 844.23 180.37 833.66 162.06"/>
    <polygon class="cls-2" points="844.23 180.37 833.66 198.68 854.8 198.68 844.23 180.37"/>
    <polygon class="cls-2" points="865.37 180.37 854.8 198.68 875.94 198.68 865.37 180.37"/>
    <polygon class="cls-2" points="875.94 162.06 865.37 180.37 886.52 180.37 875.94 162.06"/>
    <polygon class="cls-2" points="854.8 125.44 844.23 143.75 865.37 143.75 854.8 125.44"/>
    <polygon class="cls-2" points="833.66 125.44 823.09 143.75 844.23 143.75 833.66 125.44"/>
    <polygon class="cls-2" points="875.94 125.44 865.37 143.75 886.51 143.75 875.94 125.44"/>
    <polygon class="cls-2" points="833.66 198.68 823.09 180.37 844.23 180.37 833.66 198.68"/>
    <polygon class="cls-2" points="823.09 143.75 812.52 162.06 833.66 162.06 823.09 143.75"/>
    <polygon class="cls-2" points="823.09 180.37 812.52 162.06 833.66 162.06 823.09 180.37"/>
    <polygon class="cls-2" points="886.51 143.75 875.94 162.06 897.09 162.06 886.51 143.75"/>
    <polygon class="cls-2" points="886.51 180.37 875.94 162.06 897.09 162.06 886.51 180.37"/>
    <polygon class="cls-2" points="833.66 162.06 823.09 143.75 844.23 143.75 833.66 162.06"/>
    <polygon class="cls-2" points="875.94 198.68 865.37 180.37 886.51 180.37 875.94 198.68"/>
    <polygon class="cls-2" points="875.94 162.06 865.37 143.75 886.51 143.75 875.94 162.06"/>
    <polygon class="cls-2" points="854.8 198.68 844.23 180.37 865.37 180.37 854.8 198.68"/>
    <polygon class="cls-2" points="844.23 143.75 833.66 125.44 854.8 125.44 844.23 143.75"/>
    <polygon class="cls-2" points="865.37 143.75 854.8 125.44 875.94 125.44 865.37 143.75"/>
    <polygon class="cls-2" points="770.23 52.21 759.66 70.51 780.81 70.51 770.23 52.21"/>
    <polygon class="cls-2" points="780.81 70.52 770.23 88.82 791.38 88.82 780.81 70.52"/>
    <polygon class="cls-2" points="801.95 70.52 791.38 88.82 812.52 88.82 801.95 70.52"/>
    <polygon class="cls-2" points="812.52 52.21 801.95 70.51 823.09 70.51 812.52 52.21"/>
    <polygon class="cls-2" points="791.38 15.59 780.81 33.9 801.95 33.9 791.38 15.59"/>
    <polygon class="cls-2" points="770.23 15.59 759.66 33.9 780.81 33.9 770.23 15.59"/>
    <polygon class="cls-2" points="812.52 15.59 801.95 33.9 823.09 33.9 812.52 15.59"/>
    <polygon class="cls-2" points="770.23 88.82 759.66 70.52 780.81 70.52 770.23 88.82"/>
    <polygon class="cls-2" points="759.66 33.9 749.09 52.21 770.23 52.21 759.66 33.9"/>
    <polygon class="cls-2" points="759.66 70.51 749.09 52.21 770.23 52.21 759.66 70.51"/>
    <polygon class="cls-2" points="823.09 33.9 812.52 52.21 833.66 52.21 823.09 33.9"/>
    <polygon class="cls-2" points="823.09 70.51 812.52 52.21 833.66 52.21 823.09 70.51"/>
    <polygon class="cls-2" points="770.23 52.21 759.66 33.9 780.81 33.9 770.23 52.21"/>
    <polygon class="cls-2" points="812.52 88.82 801.95 70.52 823.09 70.52 812.52 88.82"/>
    <polygon class="cls-2" points="812.52 52.21 801.95 33.9 823.09 33.9 812.52 52.21"/>
    <polygon class="cls-2" points="791.38 88.82 780.81 70.52 801.95 70.52 791.38 88.82"/>
    <polygon class="cls-2" points="780.81 33.9 770.24 15.59 791.38 15.59 780.81 33.9"/>
    <polygon class="cls-2" points="801.95 33.9 791.38 15.59 812.52 15.59 801.95 33.9"/>
    <polygon class="cls-2" points="833.66 88.82 823.09 107.13 844.23 107.13 833.66 88.82"/>
    <polygon class="cls-2" points="844.23 107.13 833.66 125.44 854.8 125.44 844.23 107.13"/>
    <polygon class="cls-2" points="865.37 107.13 854.8 125.44 875.94 125.44 865.37 107.13"/>
    <polygon class="cls-2" points="875.94 88.82 865.37 107.13 886.52 107.13 875.94 88.82"/>
    <polygon class="cls-2" points="854.8 52.21 844.23 70.52 865.37 70.52 854.8 52.21"/>
    <polygon class="cls-2" points="833.66 52.21 823.09 70.52 844.23 70.52 833.66 52.21"/>
    <polygon class="cls-2" points="875.94 52.21 865.37 70.52 886.51 70.52 875.94 52.21"/>
    <polygon class="cls-2" points="833.66 125.44 823.09 107.13 844.23 107.13 833.66 125.44"/>
    <polygon class="cls-2" points="823.09 70.52 812.52 88.82 833.66 88.82 823.09 70.52"/>
    <polygon class="cls-2" points="823.09 107.13 812.52 88.83 833.66 88.83 823.09 107.13"/>
    <polygon class="cls-2" points="886.51 70.52 875.94 88.82 897.09 88.82 886.51 70.52"/>
    <polygon class="cls-2" points="886.51 107.13 875.94 88.83 897.09 88.83 886.51 107.13"/>
    <polygon class="cls-2" points="833.66 88.82 823.09 70.52 844.23 70.52 833.66 88.82"/>
    <polygon class="cls-2" points="875.94 125.44 865.37 107.13 886.51 107.13 875.94 125.44"/>
    <polygon class="cls-2" points="875.94 88.82 865.37 70.52 886.51 70.52 875.94 88.82"/>
    <polygon class="cls-2" points="854.8 125.44 844.23 107.13 865.37 107.13 854.8 125.44"/>
    <polygon class="cls-2" points="844.23 70.52 833.66 52.21 854.8 52.21 844.23 70.52"/>
    <polygon class="cls-2" points="865.37 70.52 854.8 52.21 875.94 52.21 865.37 70.52"/>
    <polygon class="cls-2" points="706.81 162.06 696.24 180.37 717.38 180.37 706.81 162.06"/>
    <polygon class="cls-2" points="717.38 180.37 706.81 198.68 727.95 198.68 717.38 180.37"/>
    <polygon class="cls-2" points="738.52 180.37 727.95 198.68 749.09 198.68 738.52 180.37"/>
    <polygon class="cls-2" points="749.09 162.06 738.52 180.37 759.66 180.37 749.09 162.06"/>
    <polygon class="cls-2" points="727.95 125.44 717.38 143.75 738.52 143.75 727.95 125.44"/>
    <polygon class="cls-2" points="706.81 125.44 696.24 143.75 717.38 143.75 706.81 125.44"/>
    <polygon class="cls-2" points="749.09 125.44 738.52 143.75 759.66 143.75 749.09 125.44"/>
    <polygon class="cls-2" points="706.81 198.68 696.24 180.37 717.38 180.37 706.81 198.68"/>
    <polygon class="cls-2" points="696.24 143.75 685.67 162.06 706.81 162.06 696.24 143.75"/>
    <polygon class="cls-2" points="696.24 180.37 685.67 162.06 706.81 162.06 696.24 180.37"/>
    <polygon class="cls-2" points="759.66 143.75 749.09 162.06 770.24 162.06 759.66 143.75"/>
    <polygon class="cls-2" points="759.66 180.37 749.09 162.06 770.24 162.06 759.66 180.37"/>
    <polygon class="cls-2" points="706.81 162.06 696.24 143.75 717.38 143.75 706.81 162.06"/>
    <polygon class="cls-2" points="749.09 198.68 738.52 180.37 759.66 180.37 749.09 198.68"/>
    <polygon class="cls-2" points="749.09 162.06 738.52 143.75 759.66 143.75 749.09 162.06"/>
    <polygon class="cls-2" points="727.95 198.68 717.38 180.37 738.52 180.37 727.95 198.68"/>
    <polygon class="cls-2" points="717.38 143.75 706.81 125.44 727.95 125.44 717.38 143.75"/>
    <polygon class="cls-2" points="738.52 143.75 727.95 125.44 749.09 125.44 738.52 143.75"/>
    <polygon class="cls-2" points="706.81 88.83 696.24 107.13 717.38 107.13 706.81 88.83"/>
    <polygon class="cls-2" points="717.38 107.13 706.81 125.44 727.95 125.44 717.38 107.13"/>
    <polygon class="cls-2" points="738.52 107.13 727.95 125.44 749.09 125.44 738.52 107.13"/>
    <polygon class="cls-2" points="749.09 88.83 738.52 107.13 759.66 107.13 749.09 88.83"/>
    <polygon class="cls-2" points="727.95 52.21 717.38 70.52 738.52 70.52 727.95 52.21"/>
    <polygon class="cls-2" points="706.81 52.21 696.24 70.52 717.38 70.52 706.81 52.21"/>
    <polygon class="cls-2" points="749.09 52.21 738.52 70.52 759.66 70.52 749.09 52.21"/>
    <polygon class="cls-2" points="706.81 125.44 696.24 107.13 717.38 107.13 706.81 125.44"/>
    <polygon class="cls-2" points="696.24 70.52 685.67 88.82 706.81 88.82 696.24 70.52"/>
    <polygon class="cls-2" points="696.24 107.13 685.67 88.83 706.81 88.83 696.24 107.13"/>
    <polygon class="cls-2" points="759.66 70.52 749.09 88.82 770.24 88.82 759.66 70.52"/>
    <polygon class="cls-2" points="759.66 107.13 749.09 88.83 770.24 88.83 759.66 107.13"/>
    <polygon class="cls-2" points="706.81 88.82 696.24 70.52 717.38 70.52 706.81 88.82"/>
    <polygon class="cls-2" points="749.09 125.44 738.52 107.13 759.66 107.13 749.09 125.44"/>
    <polygon class="cls-2" points="749.09 88.82 738.52 70.52 759.66 70.52 749.09 88.82"/>
    <polygon class="cls-2" points="727.95 125.44 717.38 107.13 738.52 107.13 727.95 125.44"/>
    <polygon class="cls-2" points="717.38 70.52 706.81 52.21 727.95 52.21 717.38 70.52"/>
    <polygon class="cls-2" points="738.52 70.52 727.95 52.21 749.09 52.21 738.52 70.52"/>
  </g>
  <g>
    <polygon class="cls-1" points="119.33 307.52 95.17 307.52 78.09 324.61 78.09 348.77 95.17 365.85 119.33 365.85 136.42 348.77 136.42 324.61 119.33 307.52"/>
    <polygon class="cls-1" points="177.67 307.52 153.5 307.52 136.42 324.61 136.42 348.77 153.5 365.85 177.67 365.85 194.75 348.77 194.75 324.61 177.67 307.52"/>
    <polygon class="cls-1" points="119.33 365.85 95.17 365.85 78.09 382.94 78.09 407.1 95.17 424.19 119.33 424.19 136.42 407.1 136.42 382.94 119.33 365.85"/>
    <polygon class="cls-1" points="177.67 365.85 153.5 365.85 136.42 382.94 136.42 407.1 153.5 424.19 177.67 424.19 194.75 407.1 194.75 382.94 177.67 365.85"/>
    <polygon class="cls-1" points="119.33 249.19 95.17 249.19 78.09 266.27 78.09 290.44 95.17 307.52 119.33 307.52 136.42 290.44 136.42 266.27 119.33 249.19"/>
    <polygon class="cls-1" points="61 307.52 36.84 307.52 19.76 324.61 19.76 348.77 36.84 365.85 61 365.85 78.09 348.77 78.09 324.61 61 307.52"/>
    <polygon class="cls-1" points="61 365.85 36.84 365.85 19.76 382.94 19.76 407.1 36.84 424.19 61 424.19 78.09 407.1 78.09 382.94 61 365.85"/>
    <polygon class="cls-1" points="61 249.19 36.84 249.19 19.76 266.27 19.76 290.44 36.84 307.52 61 307.52 78.09 290.44 78.09 266.27 61 249.19"/>
    <polygon class="cls-1" points="177.67 249.19 153.5 249.19 136.42 266.27 136.42 290.44 153.5 307.52 177.67 307.52 194.75 290.44 194.75 266.27 177.67 249.19"/>
  </g>
  <g>
    <rect class="cls-2" x="66.01" y="295.44" width="24.16" height="24.16" transform="translate(-194.58 145.29) rotate(-45)"/>
    <rect class="cls-2" x="124.34" y="295.44" width="24.16" height="24.16" transform="translate(-177.49 186.53) rotate(-45)"/>
    <rect class="cls-2" x="66.01" y="353.77" width="24.16" height="24.16" transform="translate(-235.83 162.37) rotate(-45)"/>
    <rect class="cls-2" x="124.34" y="353.77" width="24.16" height="24.16" transform="translate(-218.74 203.62) rotate(-45)"/>
    <rect class="cls-2" x="182.67" y="295.44" width="24.16" height="24.16" transform="translate(-160.41 227.78) rotate(-45)"/>
    <rect class="cls-2" x="182.67" y="353.77" width="24.16" height="24.16" transform="translate(-201.66 244.87) rotate(-45)"/>
    <rect class="cls-2" x="7.67" y="295.44" width="24.16" height="24.16" transform="translate(-211.66 104.04) rotate(-45)"/>
    <rect class="cls-2" x="7.67" y="353.77" width="24.16" height="24.16" transform="translate(-252.91 121.13) rotate(-45)"/>
  </g>
  <g>
    <polygon class="cls-5" points="277.79 293.69 277.79 319.27 299.95 332.06 322.1 319.27 322.1 293.69 299.95 280.9 277.79 293.69"/>
    <polygon class="cls-5" points="347.58 293.99 347.58 319.57 369.73 332.36 391.89 319.57 391.89 293.99 369.73 281.2 347.58 293.99"/>
    <polygon class="cls-5" points="312.96 354.51 312.96 380.1 335.12 392.89 357.27 380.1 357.27 354.51 335.12 341.72 312.96 354.51"/>
  </g>
  <g>
    <polygon class="cls-2" points="299.95 332.06 287.07 354.37 312.83 354.37 299.95 332.06"/>
    <polygon class="cls-2" points="369.81 332.06 356.93 354.37 382.69 354.37 369.81 332.06"/>
    <polygon class="cls-2" points="334.88 341.67 347.76 319.36 322 319.36 334.88 341.67"/>
    <polygon class="cls-2" points="404.74 341.67 417.62 319.36 391.86 319.36 404.74 341.67"/>
    <polygon class="cls-2" points="265.12 341.67 278 319.36 252.24 319.36 265.12 341.67"/>
    <polygon class="cls-2" points="369.81 281.29 382.69 258.98 356.93 258.98 369.81 281.29"/>
    <polygon class="cls-2" points="299.95 280.9 312.83 258.59 287.07 258.59 299.95 280.9"/>
    <polygon class="cls-2" points="334.88 271.44 322 293.75 347.76 293.75 334.88 271.44"/>
    <polygon class="cls-2" points="404.74 271.44 391.86 293.75 417.62 293.75 404.74 271.44"/>
    <polygon class="cls-2" points="265.02 271.44 252.14 293.75 277.9 293.75 265.02 271.44"/>
    <rect class="cls-1" x="322.34" y="413.68" width="25.55" height="25.55" transform="translate(761.57 91.34) rotate(90)"/>
    <rect class="cls-1" x="322.34" y="413.68" width="25.55" height="25.55" transform="translate(761.57 91.34) rotate(90)"/>
    <polygon class="cls-2" points="334.83 392.58 321.95 414.89 347.71 414.89 334.83 392.58"/>
    <polygon class="cls-2" points="369.76 402.18 382.64 379.88 356.88 379.88 369.76 402.18"/>
    <polygon class="cls-2" points="300 402.18 312.88 379.88 287.12 379.88 300 402.18"/>
  </g>
  <g>
    <rect class="cls-1" x="269.72" y="263.46" width="25.55" height="25.55" transform="translate(380.48 -106.53) rotate(60)"/>
    <rect class="cls-1" x="269.72" y="384.6" width="25.55" height="25.55" transform="translate(485.39 -45.96) rotate(60)"/>
    <rect class="cls-1" x="234.68" y="324.29" width="25.55" height="25.55" transform="translate(415.64 -45.77) rotate(60)"/>
    <rect class="cls-1" x="252.24" y="293.75" width="25.55" height="25.55" transform="translate(571.54 41.51) rotate(90)"/>
    <rect class="cls-1" x="322.34" y="414.89" width="25.55" height="25.55" transform="translate(762.78 92.55) rotate(90)"/>
    <rect class="cls-1" x="391.96" y="293.75" width="25.55" height="25.55" transform="translate(711.27 -98.22) rotate(90)"/>
    <rect class="cls-1" x="287.17" y="354.53" width="25.55" height="25.55" transform="translate(667.25 67.36) rotate(90)"/>
    <rect class="cls-1" x="356.96" y="233.48" width="25.55" height="25.55" transform="translate(615.99 -123.47) rotate(90)"/>
    <rect class="cls-1" x="287.17" y="233.04" width="25.55" height="25.55" transform="translate(545.76 -54.13) rotate(90)"/>
    <rect class="cls-1" x="322.1" y="293.75" width="25.55" height="25.55" transform="translate(641.4 -28.35) rotate(90)"/>
    <rect class="cls-1" x="357.51" y="354.53" width="25.55" height="25.55" transform="translate(737.59 -2.98) rotate(90)"/>
    <rect class="cls-1" x="304.75" y="324.15" width="25.55" height="25.55" transform="translate(450.55 -106.53) rotate(60)"/>
    <rect class="cls-1" x="374.43" y="324.15" width="25.55" height="25.55" transform="translate(485.39 -166.87) rotate(60)"/>
    <rect class="cls-1" x="339.56" y="263.74" width="25.55" height="25.55" transform="translate(415.64 -166.87) rotate(60)"/>
    <rect class="cls-1" x="269.72" y="324.15" width="25.55" height="25.55" transform="translate(-150.54 413.11) rotate(-60)"/>
    <rect class="cls-1" x="234.45" y="263.46" width="25.55" height="25.55" transform="translate(-115.62 352.22) rotate(-60)"/>
    <rect class="cls-1" x="409.43" y="263.35" width="25.55" height="25.55" transform="translate(394.17 779.83) rotate(-120)"/>
    <rect class="cls-1" x="409.43" y="323.79" width="25.55" height="25.55" transform="translate(924.79 139.21) rotate(120)"/>
    <rect class="cls-1" x="339.63" y="384.66" width="25.55" height="25.55" transform="translate(520.4 -106.48) rotate(60)"/>
    <rect class="cls-1" x="304.6" y="384.66" width="25.55" height="25.55" transform="translate(-185.51 473.57) rotate(-60)"/>
    <rect class="cls-1" x="374.43" y="263.74" width="25.55" height="25.55" transform="translate(-45.87 473.59) rotate(-60)"/>
    <rect class="cls-1" x="374.53" y="384.66" width="25.55" height="25.55" transform="translate(-150.54 534.14) rotate(-60)"/>
    <rect class="cls-1" x="339.56" y="324.15" width="25.55" height="25.55" transform="translate(-115.62 473.59) rotate(-60)"/>
    <rect class="cls-1" x="304.75" y="263.46" width="25.55" height="25.55" transform="translate(-80.46 413.11) rotate(-60)"/>
  </g>
  <g>
    <polygon class="cls-4" points="554.17 276.86 538.92 276.86 525.72 284.48 518.1 297.68 518.1 312.93 525.72 326.13 538.92 333.75 554.17 333.75 567.37 326.13 574.99 312.93 574.99 297.68 567.37 284.48 554.17 276.86"/>
    <polygon class="cls-4" points="590.12 339.21 574.87 339.21 561.67 346.84 554.05 360.04 554.05 375.28 561.67 388.48 574.87 396.1 590.12 396.1 603.32 388.48 610.94 375.28 610.94 360.04 603.32 346.84 590.12 339.21"/>
    <polygon class="cls-4" points="625.48 277.22 610.24 277.22 597.04 284.84 589.42 298.04 589.42 313.28 597.04 326.48 610.24 334.11 625.48 334.11 638.68 326.48 646.3 313.28 646.3 298.04 638.68 284.84 625.48 277.22"/>
    <polygon class="cls-4" points="518.04 339.31 502.8 339.31 489.6 346.93 481.97 360.13 481.97 375.38 489.6 388.58 502.8 396.2 518.04 396.2 531.24 388.58 538.86 375.38 538.86 360.13 531.24 346.93 518.04 339.31"/>
  </g>
  <g>
    <polygon class="cls-3" points="554.13 250.57 538.96 250.57 531.37 263.72 538.96 276.86 554.13 276.86 561.72 263.72 554.13 250.57"/>
    <polygon class="cls-3" points="554.13 333.83 538.96 333.83 531.37 346.97 538.96 360.12 554.13 360.12 561.72 346.97 554.13 333.83"/>
    <polygon class="cls-3" points="590.21 313.11 575.03 313.11 567.44 326.26 575.03 339.4 590.21 339.4 597.8 326.26 590.21 313.11"/>
    <polygon class="cls-3" points="518.29 313.11 503.11 313.11 495.52 326.26 503.11 339.4 518.29 339.4 525.88 326.26 518.29 313.11"/>
    <polygon class="cls-3" points="590.21 271.36 575.03 271.36 567.44 284.5 575.03 297.65 590.21 297.65 597.8 284.5 590.21 271.36"/>
    <polygon class="cls-3" points="518.29 271.36 503.11 271.36 495.52 284.5 503.11 297.65 518.29 297.65 525.88 284.5 518.29 271.36"/>
    <polygon class="cls-3" points="590.08 396.18 574.9 396.18 567.32 409.33 574.9 422.47 590.08 422.47 597.67 409.33 590.08 396.18"/>
    <polygon class="cls-3" points="626.16 375.47 610.98 375.47 603.39 388.61 610.98 401.75 626.16 401.75 633.75 388.61 626.16 375.47"/>
    <polygon class="cls-3" points="554.24 375.47 539.06 375.47 531.47 388.61 539.06 401.75 554.24 401.75 561.83 388.61 554.24 375.47"/>
    <polygon class="cls-3" points="626.16 333.71 610.98 333.71 603.39 346.85 610.98 360 626.16 360 633.75 346.85 626.16 333.71"/>
    <polygon class="cls-3" points="625.58 251.12 610.4 251.12 602.81 264.26 610.4 277.41 625.58 277.41 633.17 264.26 625.58 251.12"/>
    <polygon class="cls-3" points="661.53 313.47 646.35 313.47 638.76 326.62 646.35 339.76 661.53 339.76 669.11 326.62 661.53 313.47"/>
    <polygon class="cls-3" points="661.53 271.71 646.35 271.71 638.76 284.86 646.35 298 661.53 298 669.11 284.86 661.53 271.71"/>
    <polygon class="cls-3" points="482.06 333.93 466.88 333.93 459.29 347.07 466.88 360.21 482.06 360.21 489.65 347.07 482.06 333.93"/>
    <polygon class="cls-3" points="518.01 396.28 502.83 396.28 495.24 409.42 502.83 422.57 518.01 422.57 525.6 409.42 518.01 396.28"/>
    <polygon class="cls-3" points="482.16 375.56 466.98 375.56 459.4 388.71 466.98 401.85 482.16 401.85 489.75 388.71 482.16 375.56"/>
  </g>
  <g>
    <rect class="cls-6" x="556.99" y="328.92" width="15.24" height="15.24" transform="translate(573.76 -320.7) rotate(60)"/>
    <rect class="cls-6" x="520.89" y="266.51" width="15.24" height="15.24" transform="translate(501.66 -320.64) rotate(60)"/>
    <rect class="cls-6" x="556.99" y="266.51" width="15.24" height="15.24" transform="translate(44.9 626.03) rotate(-60)"/>
    <rect class="cls-6" x="520.89" y="329.03" width="15.24" height="15.24" transform="translate(-27.3 626.03) rotate(-60)"/>
    <rect class="cls-6" x="502.86" y="297.68" width="15.24" height="15.24"/>
    <rect class="cls-6" x="574.99" y="297.68" width="15.24" height="15.24"/>
    <rect class="cls-6" x="592.94" y="391.27" width="15.24" height="15.24" transform="translate(645.73 -320.66) rotate(60)"/>
    <rect class="cls-6" x="592.94" y="328.86" width="15.24" height="15.24" transform="translate(8.88 688.34) rotate(-60)"/>
    <rect class="cls-6" x="556.84" y="391.39" width="15.24" height="15.24" transform="translate(-63.32 688.34) rotate(-60)"/>
    <rect class="cls-6" x="538.81" y="360.04" width="15.24" height="15.24"/>
    <rect class="cls-6" x="610.94" y="360.04" width="15.24" height="15.24"/>
    <rect class="cls-6" x="592.36" y="266.93" width="15.24" height="15.24" transform="translate(537.75 -382.33) rotate(60)"/>
    <rect class="cls-6" x="628.31" y="329.28" width="15.24" height="15.24" transform="translate(609.73 -382.28) rotate(60)"/>
    <rect class="cls-6" x="628.31" y="266.86" width="15.24" height="15.24" transform="translate(80.25 687.97) rotate(-60)"/>
    <rect class="cls-6" x="646.3" y="298.04" width="15.24" height="15.24"/>
    <rect class="cls-6" x="484.92" y="329.02" width="15.24" height="15.24" transform="translate(537.81 -258.23) rotate(60)"/>
    <rect class="cls-6" x="520.86" y="391.37" width="15.24" height="15.24" transform="translate(609.78 -258.19) rotate(60)"/>
    <rect class="cls-6" x="484.76" y="391.48" width="15.24" height="15.24" transform="translate(-99.44 625.97) rotate(-60)"/>
    <rect class="cls-6" x="466.73" y="360.13" width="15.24" height="15.24"/>
  </g>
  <g>
    <polygon class="cls-4" points="784.61 282.32 768.98 282.32 755.45 290.14 747.64 303.67 747.64 319.3 755.45 332.83 768.98 340.65 784.61 340.65 798.14 332.83 805.96 319.3 805.96 303.67 798.14 290.14 784.61 282.32"/>
    <polygon class="cls-4" points="726.29 282.32 710.66 282.32 697.13 290.14 689.31 303.67 689.31 319.3 697.13 332.83 710.66 340.65 726.29 340.65 739.82 332.83 747.64 319.3 747.64 303.67 739.82 290.14 726.29 282.32"/>
    <polygon class="cls-4" points="842.93 282.32 827.3 282.32 813.77 290.14 805.96 303.67 805.96 319.3 813.77 332.83 827.3 340.65 842.93 340.65 856.47 332.83 864.28 319.3 864.28 303.67 856.47 290.14 842.93 282.32"/>
    <polygon class="cls-4" points="784.61 383.18 768.98 383.18 755.45 390.99 747.64 404.53 747.64 420.15 755.45 433.69 768.98 441.5 784.61 441.5 798.14 433.69 805.96 420.15 805.96 404.53 798.14 390.99 784.61 383.18"/>
    <polygon class="cls-4" points="726.29 383.18 710.66 383.18 697.13 390.99 689.31 404.53 689.31 420.15 697.13 433.69 710.66 441.5 726.29 441.5 739.82 433.69 747.64 420.15 747.64 404.53 739.82 390.99 726.29 383.18"/>
    <polygon class="cls-4" points="842.93 383.18 827.3 383.18 813.77 390.99 805.96 404.53 805.96 420.15 813.77 433.69 827.3 441.5 842.93 441.5 856.47 433.69 864.28 420.15 864.28 404.53 856.47 390.99 842.93 383.18"/>
    <polygon class="cls-4" points="813.77 231.81 798.14 231.81 784.61 239.62 776.8 253.16 776.8 268.79 784.61 282.32 798.14 290.13 813.77 290.13 827.3 282.32 835.12 268.79 835.12 253.16 827.3 239.62 813.77 231.81"/>
    <polygon class="cls-4" points="755.45 231.81 739.82 231.81 726.29 239.62 718.47 253.16 718.47 268.79 726.29 282.32 739.82 290.13 755.45 290.13 768.98 282.32 776.8 268.79 776.8 253.16 768.98 239.62 755.45 231.81"/>
    <polygon class="cls-4" points="872.09 231.81 856.47 231.81 842.93 239.62 835.12 253.16 835.12 268.79 842.93 282.32 856.47 290.13 872.09 290.13 885.63 282.32 893.44 268.79 893.44 253.16 885.63 239.62 872.09 231.81"/>
    <polygon class="cls-4" points="813.77 332.88 798.14 332.88 784.61 340.69 776.8 354.23 776.8 369.86 784.61 383.39 798.14 391.2 813.77 391.2 827.3 383.39 835.12 369.86 835.12 354.23 827.3 340.69 813.77 332.88"/>
    <polygon class="cls-4" points="755.45 332.88 739.82 332.88 726.29 340.69 718.47 354.23 718.47 369.86 726.29 383.39 739.82 391.2 755.45 391.2 768.98 383.39 776.8 369.86 776.8 354.23 768.98 340.69 755.45 332.88"/>
    <polygon class="cls-4" points="872.09 332.88 856.47 332.88 842.93 340.69 835.12 354.23 835.12 369.86 842.93 383.39 856.47 391.2 872.09 391.2 885.63 383.39 893.44 369.86 893.44 354.23 885.63 340.69 872.09 332.88"/>
  </g>
  <g>
    <polygon class="cls-3" points="739.82 290.13 755.45 290.14 747.64 303.67 739.82 290.13"/>
    <polygon class="cls-3" points="798.14 290.13 813.77 290.14 805.96 303.67 798.14 290.13"/>
    <polygon class="cls-3" points="768.98 340.65 784.61 340.65 776.8 354.18 768.98 340.65"/>
    <polygon class="cls-3" points="827.3 340.65 842.93 340.65 835.12 354.18 827.3 340.65"/>
    <polygon class="cls-3" points="739.82 391.2 755.45 391.21 747.64 404.74 739.82 391.2"/>
    <polygon class="cls-3" points="798.14 391.2 813.77 391.21 805.96 404.74 798.14 391.2"/>
    <polygon class="cls-3" points="768.98 383.18 784.61 383.17 776.8 369.64 768.98 383.18"/>
    <polygon class="cls-3" points="827.3 383.18 842.93 383.17 835.12 369.64 827.3 383.18"/>
    <polygon class="cls-3" points="798.14 332.66 813.77 332.66 805.96 319.13 798.14 332.66"/>
    <polygon class="cls-3" points="739.82 332.66 755.45 332.66 747.64 319.13 739.82 332.66"/>
    <polygon class="cls-3" points="856.47 332.66 872.09 332.66 864.28 319.13 856.47 332.66"/>
    <polygon class="cls-3" points="768.98 282.11 784.61 282.1 776.8 268.57 768.98 282.11"/>
    <polygon class="cls-3" points="827.3 282.11 842.93 282.1 835.12 268.57 827.3 282.11"/>
  </g>
</svg>